<svg width="180" height="46" viewBox="0 0 180 46" fill="none" xmlns="http://www.w3.org/2000/svg">
<path opacity="0.972" fill-rule="evenodd" clip-rule="evenodd" d="M0 25.7733C0 23.3162 0 20.8592 0 18.4021C0.147128 15.5139 0.589397 12.6637 1.32681 9.85159C3.04645 3.7876 7.04653 0.514805 13.3271 0.0332031C13.5054 0.335716 13.4661 0.610866 13.2091 0.858773C12.7538 1.03639 12.282 1.15433 11.7939 1.21259C9.11789 1.92317 7.14242 3.50555 5.86744 5.95962C4.85337 8.08876 4.2047 10.3296 3.92146 12.6821C3.60438 15.385 3.45696 18.0976 3.47919 20.8199C3.45181 23.7995 3.61889 26.7676 3.98043 29.7242C4.26318 32.0463 4.89219 34.2675 5.86744 36.3878C7.40601 39.2863 9.79427 41.0456 13.0322 41.6655C14.902 42.0282 16.789 42.1756 18.6933 42.1078C21.3788 42.2363 23.9931 41.8731 26.5362 41.0168C28.574 40.1979 30.1367 38.8319 31.2242 36.9185C32.1225 35.187 32.7515 33.3589 33.1112 31.4343C33.4769 29.3658 33.7128 27.2823 33.8189 25.1836C34.0089 21.1658 33.9107 17.1559 33.524 13.1539C33.2592 10.6397 32.5909 8.24155 31.5191 5.95962C30.4617 3.89976 28.8597 2.43538 26.7131 1.5664C25.8781 1.284 25.0328 1.04812 24.1774 0.858773C23.8817 0.606443 23.8425 0.331293 24.0595 0.0332031C30.027 0.438912 33.9484 3.47583 35.8238 9.14396C36.6837 11.9287 37.1752 14.7789 37.2981 17.6945C37.584 22.2313 37.4267 26.7523 36.8263 31.2574C36.476 33.625 35.8273 35.9052 34.8803 38.0979C33.142 41.853 30.2624 44.2413 26.2413 45.2626C24.9443 45.5988 23.6273 45.8152 22.2904 45.9113C20.1293 46.0045 17.9671 46.0245 15.8038 45.9703C13.5764 45.8553 11.4142 45.4224 9.31715 44.6729C7.43237 43.9417 5.83037 42.8119 4.51115 41.2822C3.21048 39.6642 2.24731 37.8558 1.62165 35.857C1.00248 33.7733 0.570039 31.6504 0.324331 29.4884C0.212255 28.2413 0.104144 27.0029 0 25.7733Z" fill="#1C1D1A"/>
<path opacity="0.957" fill-rule="evenodd" clip-rule="evenodd" d="M16.1569 0.00369387C17.8868 -0.006154 19.6166 0.00369387 21.3462 0.0331785C21.5815 0.150527 21.7289 0.337283 21.7885 0.593387C21.8415 1.20625 21.8219 1.81564 21.7295 2.42143C21.6607 2.56886 21.5526 2.67695 21.4052 2.74577C19.6361 2.7851 17.867 2.7851 16.098 2.74577C15.9505 2.67695 15.8425 2.56886 15.7736 2.42143C15.7343 1.75314 15.7343 1.08478 15.7736 0.416479C15.8735 0.247945 16.0013 0.110369 16.1569 0.00369387Z" fill="#26ACD3"/>
<path opacity="0.958" fill-rule="evenodd" clip-rule="evenodd" d="M16.2159 5.66483C17.9261 5.65498 19.6362 5.66483 21.3462 5.69431C21.5815 5.81166 21.7289 5.99842 21.7885 6.25452C21.8429 6.84858 21.8233 7.43827 21.7295 8.0236C21.6411 8.19066 21.5133 8.31844 21.3462 8.4069C19.6165 8.44623 17.8867 8.44623 16.1569 8.4069C15.9899 8.31844 15.8621 8.19066 15.7736 8.0236C15.7343 7.37494 15.7343 6.72627 15.7736 6.07761C15.8778 5.88466 16.0253 5.74709 16.2159 5.66483Z" fill="#26ACD3"/>
<path opacity="0.978" fill-rule="evenodd" clip-rule="evenodd" d="M147.896 11.09C149.254 11.0657 150.61 11.0952 151.965 11.1785C155.168 11.4926 157.143 13.2126 157.891 16.3383C158.28 18.1847 158.447 20.0521 158.392 21.9404C158.459 23.8923 158.272 25.8187 157.832 27.7194C157.278 30.141 155.813 31.7037 153.439 32.4074C152.778 32.5709 152.11 32.6889 151.434 32.7612C150.274 32.8006 149.115 32.8006 147.955 32.7612C146.485 32.6709 145.128 32.2385 143.886 31.4639C142.657 30.4292 141.861 29.1221 141.497 27.5424C141.219 26.3394 141.062 25.1207 141.026 23.8864C140.986 22.5694 140.986 21.2524 141.026 19.9354C141.072 18.3211 141.347 16.7486 141.851 15.2179C142.578 13.2725 143.944 12.0243 145.95 11.4733C146.602 11.325 147.251 11.1972 147.896 11.09ZM149.311 14.2154C150.134 14.2072 150.939 14.3153 151.729 14.5397C152.641 14.9019 153.28 15.5407 153.645 16.4562C154.02 17.6653 154.237 18.9037 154.294 20.1713C154.402 22.1874 154.304 24.1923 153.999 26.1862C153.566 28.5757 152.131 29.7354 149.694 29.6653C147.394 29.762 145.979 28.7006 145.448 26.481C145.27 25.5649 145.152 24.641 145.095 23.7094C144.984 21.6736 145.082 19.6491 145.389 17.6356C145.779 15.4272 147.086 14.2871 149.311 14.2154Z" fill="#1C1D1A"/>
<path opacity="0.971" fill-rule="evenodd" clip-rule="evenodd" d="M132.623 11.1489C134.608 11.1489 136.593 11.1489 138.578 11.1489C138.578 12.2104 138.578 13.2718 138.578 14.3333C136.493 14.3074 134.41 14.3369 132.328 14.4217C130.817 14.7345 129.804 15.6092 129.291 17.0459C129.143 17.5898 129.025 18.1401 128.937 18.697C128.836 19.8154 128.767 20.9358 128.731 22.0582C128.739 23.6683 128.906 25.2605 129.232 26.8348C129.761 28.4837 130.892 29.437 132.623 29.6948C133.447 29.7514 134.273 29.7809 135.099 29.7832C136.261 29.7287 137.42 29.709 138.578 29.7242C138.578 30.7857 138.578 31.8471 138.578 32.9086C136.317 32.9317 134.057 32.9022 131.797 32.8201C130.43 32.7435 129.152 32.37 127.964 31.6997C126.654 30.7623 125.78 29.5142 125.34 27.9552C124.741 25.4744 124.524 22.9584 124.691 20.4071C124.728 18.5339 125.082 16.7255 125.753 14.9819C126.654 13.0892 128.139 11.9197 130.205 11.4733C131.015 11.3303 131.821 11.2222 132.623 11.1489Z" fill="#1C1D1A"/>
<path opacity="0.965" fill-rule="evenodd" clip-rule="evenodd" d="M56.7276 11.4436C59.853 11.4436 62.9784 11.4436 66.1037 11.4436C66.1037 12.5051 66.1037 13.5665 66.1037 14.6279C63.4106 14.6181 60.7181 14.6279 58.0249 14.6574C57.1388 14.6984 56.6571 15.1604 56.5802 16.0432C56.5507 17.3994 56.5409 18.7557 56.5507 20.1121C59.3417 20.1121 62.1333 20.1121 64.9243 20.1121C64.9243 21.0949 64.9243 22.0777 64.9243 23.0606C62.1333 23.0606 59.3417 23.0606 56.5507 23.0606C56.5507 26.2056 56.5507 29.3506 56.5507 32.4956C55.2534 32.4956 53.9561 32.4956 52.6587 32.4956C52.6306 26.5976 52.6601 20.7007 52.7472 14.8049C52.9998 13.334 53.8155 12.3217 55.1944 11.7679C55.7043 11.6145 56.2154 11.5064 56.7276 11.4436Z" fill="#1C1D1A"/>
<path opacity="0.97" fill-rule="evenodd" clip-rule="evenodd" d="M73.2393 11.4436C76.4632 11.4436 79.6865 11.4436 82.9103 11.4436C82.9103 12.5051 82.9103 13.5665 82.9103 14.6279C80.0798 14.6181 77.2493 14.6279 74.4187 14.6574C73.5867 14.703 73.1444 15.1452 73.0919 15.9842C73.0624 17.36 73.0524 18.736 73.0624 20.1121C75.9519 20.1022 78.8414 20.1121 81.7309 20.1416C81.7698 20.6088 81.7893 21.0806 81.7899 21.5568C81.7893 22.0331 81.7698 22.5048 81.7309 22.9721C78.8414 23.0016 75.9519 23.0114 73.0624 23.0016C73.0524 24.6922 73.0624 26.3826 73.0919 28.0729C73.1444 28.7799 73.5077 29.2221 74.1829 29.3997C77.1502 29.4759 80.1187 29.5054 83.0872 29.4882C83.1067 30.5051 83.0866 31.5173 83.0282 32.5251C80.778 32.5649 78.5271 32.5943 76.2763 32.6136C75.0857 32.619 73.8963 32.5895 72.7086 32.5251C70.5191 32.167 69.3497 30.8795 69.1999 28.6626C69.1427 24.0422 69.1622 19.423 69.2589 14.8049C69.506 13.3386 70.3215 12.3263 71.7061 11.7679C72.2162 11.6145 72.7269 11.5064 73.2393 11.4436Z" fill="#1C1D1A"/>
<path opacity="0.972" fill-rule="evenodd" clip-rule="evenodd" d="M116.111 11.4436C118.018 11.4295 119.925 11.4492 121.831 11.5026C121.831 12.564 121.831 13.6255 121.831 14.6869C118.902 14.6771 115.973 14.6869 113.044 14.7164C112.47 14.8582 112.145 15.2218 112.071 15.8074C111.988 17.2406 111.958 18.6755 111.983 20.1121C114.892 20.1121 117.801 20.1121 120.71 20.1121C120.71 21.0753 120.71 22.0385 120.71 23.0016C117.801 23.0016 114.892 23.0016 111.983 23.0016C111.973 24.5939 111.983 26.1861 112.012 27.7781C111.946 28.7188 112.368 29.279 113.28 29.4587C116.189 29.4784 119.098 29.4981 122.007 29.5177C122.066 30.5255 122.086 31.5378 122.066 32.5546C118.647 32.6203 115.227 32.63 111.806 32.5841C109.966 32.3978 108.778 31.4248 108.238 29.6651C108.141 24.7138 108.121 19.7604 108.179 14.8049C108.608 12.8237 109.836 11.7328 111.865 11.5321C113.29 11.5222 114.705 11.4927 116.111 11.4436Z" fill="#1C1D1A"/>
<path opacity="0.955" fill-rule="evenodd" clip-rule="evenodd" d="M16.1569 11.5027C17.8868 11.4929 19.6166 11.5027 21.3462 11.5322C21.5989 11.6342 21.7463 11.8209 21.7885 12.0924C21.8429 12.6865 21.8233 13.2762 21.7295 13.8615C21.6374 14.0518 21.4899 14.1796 21.2873 14.2448C19.5968 14.2841 17.9064 14.2841 16.2159 14.2448C16.0132 14.1796 15.8658 14.0518 15.7736 13.8615C15.7343 13.2128 15.7343 12.5642 15.7736 11.9155C15.8577 11.7323 15.9855 11.5947 16.1569 11.5027Z" fill="#26ACD3"/>
<path opacity="0.974" fill-rule="evenodd" clip-rule="evenodd" d="M87.6293 11.5616C88.7892 11.5517 89.9491 11.5616 91.1085 11.591C91.4381 11.6843 91.7035 11.871 91.9046 12.1512C94.1873 16.6974 96.4871 21.238 98.804 25.7732C99.1784 26.5411 99.5028 27.3273 99.777 28.1319C99.9144 28.1319 100.052 28.1319 100.19 28.1319C100.15 27.7402 100.121 27.3471 100.101 26.9525C100.072 21.8223 100.062 16.6919 100.072 11.5616C101.291 11.5616 102.509 11.5616 103.728 11.5616C103.738 18.2251 103.728 24.8886 103.698 31.5521C103.595 32.0293 103.31 32.334 102.843 32.4662C101.624 32.5055 100.406 32.5055 99.1873 32.4662C98.7533 32.3076 98.4289 32.0226 98.2143 31.6111C96.069 27.3009 93.9066 22.9961 91.7277 18.6968C91.2777 17.7607 90.8844 16.7976 90.5483 15.8073C90.448 15.7539 90.3401 15.7343 90.2239 15.7484C90.2835 16.4746 90.3324 17.2019 90.3714 17.9302C90.4008 22.7854 90.4109 27.6405 90.4008 32.4956C89.143 32.4956 87.8846 32.4956 86.6268 32.4956C86.6168 25.9107 86.6268 19.3258 86.6563 12.7409C86.717 12.1206 87.0414 11.7274 87.6293 11.5616Z" fill="#1C1D1A"/>
<path opacity="0.981" fill-rule="evenodd" clip-rule="evenodd" d="M179.561 11.5618C179.561 18.3432 179.561 25.1247 179.561 31.9062C179.389 32.1665 179.153 32.3532 178.853 32.4664C177.615 32.5057 176.376 32.5057 175.138 32.4664C174.902 32.3872 174.695 32.2595 174.519 32.0831C174.416 31.896 174.298 31.7191 174.165 31.5524C172.016 27.2348 169.854 22.93 167.678 18.6381C167.382 17.968 167.088 17.2997 166.794 16.6331C166.687 16.3425 166.599 16.0476 166.529 15.7486C166.409 15.739 166.291 15.7489 166.175 15.7781C166.253 16.2932 166.302 16.8141 166.322 17.3408C166.352 22.3924 166.362 27.4442 166.352 32.4959C165.113 32.4959 163.875 32.4959 162.637 32.4959C162.627 25.852 162.637 19.2081 162.666 12.5643C162.75 12.0318 163.055 11.7075 163.58 11.5913C164.74 11.5519 165.899 11.5519 167.059 11.5913C167.508 11.706 167.832 11.9714 168.032 12.3874C170.34 17.0231 172.66 21.6423 174.991 26.2451C175.268 26.8429 175.524 27.4522 175.757 28.0732C175.878 28.1276 176.006 28.1472 176.141 28.1321C176.118 27.6012 176.089 27.0705 176.052 26.54C176.023 21.5473 176.013 16.5545 176.023 11.5618C177.202 11.5618 178.381 11.5618 179.561 11.5618Z" fill="#1C1D1A"/>
<path opacity="0.957" fill-rule="evenodd" clip-rule="evenodd" d="M16.1569 17.2818C17.8868 17.2719 19.6166 17.2818 21.3462 17.3113C21.5815 17.4286 21.7289 17.6154 21.7885 17.8715C21.8429 18.4655 21.8233 19.0552 21.7295 19.6405C21.636 19.8325 21.4885 19.9603 21.2873 20.0238C19.5342 20.0814 17.7848 20.0618 16.039 19.9649C15.9283 19.8739 15.8398 19.7658 15.7736 19.6405C15.7343 18.9919 15.7343 18.3432 15.7736 17.6946C15.8735 17.526 16.0013 17.3884 16.1569 17.2818Z" fill="#26ACD3"/>
</svg>
