<svg width="198" height="46" viewBox="0 0 198 46" fill="none" xmlns="http://www.w3.org/2000/svg">
<g clip-path="url(#clip0_39_870)">
<path d="M5.4616 6.15942H29.7893C31.1301 6.15942 32.4159 6.69204 33.364 7.6401C34.312 8.58816 34.8447 9.87401 34.8447 11.2148V15.0108H0.40625V11.2148C0.40625 9.87401 0.938865 8.58816 1.88693 7.6401C2.83499 6.69204 4.12084 6.15942 5.4616 6.15942Z" fill="#008CD6"/>
<path d="M22.6092 12.4285H12.6445V45.4068H22.6092V12.4285Z" fill="#008CD6"/>
<path d="M43.0028 18.5332V25.8334C41.2823 25.8341 39.6075 26.3868 38.2245 27.4101C36.8415 28.4334 35.8232 29.8734 35.3194 31.5184V45.416H26.0391V18.3599H35.3194V20.6047C37.6518 19.2459 40.3034 18.531 43.0028 18.5332Z" fill="#008CD6"/>
<path d="M53.8687 18.3599H44.6797V45.416H53.8687V18.3599Z" fill="#008CD6"/>
<path d="M80.7067 25.3771V45.4525H71.9466V27.1109C71.9466 26.6269 71.7543 26.1627 71.412 25.8204C71.0698 25.4781 70.6056 25.2859 70.1215 25.2859H65.0114V45.416H56.2695V18.3599H73.6074C74.5358 18.349 75.4571 18.5225 76.318 18.8703C77.1789 19.218 77.9622 19.7332 78.6225 20.3859C79.2828 21.0386 79.8071 21.8158 80.1648 22.6726C80.5226 23.5294 80.7068 24.4486 80.7067 25.3771Z" fill="#008CD6"/>
<path d="M56.271 18.3599H56.0977V25.2676H56.271V18.3599Z" fill="#008CD6"/>
<path d="M99.0032 18.3599H82.7695V20.4222C82.7695 21.5161 83.2041 22.5652 83.9776 23.3387C84.7511 24.1122 85.8002 24.5467 86.8941 24.5467H98.1637V28.7899H91.0826C88.8778 28.7899 86.7634 29.6658 85.2044 31.2248C83.6454 32.7838 82.7695 34.8982 82.7695 37.103C82.7695 39.3077 83.6454 41.4222 85.2044 42.9812C86.7634 44.5402 88.8778 45.416 91.0826 45.416H107.115V26.463C107.113 24.3131 106.257 22.252 104.736 20.7327C103.215 19.2133 101.153 18.3599 99.0032 18.3599ZM91.4841 37.103C91.4841 36.8242 91.5391 36.5481 91.6461 36.2907C91.753 36.0333 91.9098 35.7995 92.1074 35.6028C92.3049 35.4061 92.5394 35.2503 92.7973 35.1445C93.0552 35.0386 93.3315 34.9847 93.6102 34.9859H98.1728V39.2383H93.6102C93.3303 39.2383 93.053 39.183 92.7945 39.0755C92.5359 38.9681 92.3011 38.8107 92.1036 38.6123C91.906 38.4139 91.7496 38.1784 91.6433 37.9194C91.537 37.6604 91.4829 37.3829 91.4841 37.103Z" fill="#008CD6"/>
<path d="M112.034 38.6086C112.81 41.8115 114.908 43.7369 118.522 43.7369C122.592 43.7369 124.234 41.7111 124.234 38.9553C124.234 36.1995 123.139 34.7669 118.02 33.4802C112.125 31.9563 110.665 30.0309 110.665 26.7823C110.665 23.3787 113.038 20.2305 118.203 20.2305C123.367 20.2305 125.84 23.625 126.205 27.1291H123.915C123.718 25.7617 123.011 24.5194 121.937 23.6512C120.862 22.783 119.499 22.3532 118.12 22.4479C114.142 22.4479 113.001 24.5649 113.001 26.536C113.001 28.8081 114.096 29.9397 118.622 31.0986C125.074 32.7776 126.671 35.0406 126.671 38.7363C126.671 43.2259 123.285 45.9817 118.458 45.9817C113.248 45.9817 110.318 43.0252 109.68 38.5903L112.034 38.6086Z" fill="#008CD6"/>
<path d="M150.25 33.0422C150.25 39.8952 146.728 45.9999 139.921 45.9999C133.752 45.9999 129.883 40.5248 129.883 33.0878C129.883 26.0432 133.533 20.1848 140.121 20.1848C146.226 20.1848 150.25 25.304 150.25 33.0422ZM132.328 33.0422C132.328 38.9097 135.258 43.6365 140.103 43.6365C144.948 43.6365 147.823 39.2564 147.823 33.0422C147.823 27.2294 145.085 22.4479 140.012 22.4479C134.801 22.4935 132.328 27.1747 132.328 33.0878V33.0422Z" fill="#008CD6"/>
<path d="M155.324 45.4069V9.12524H157.615V45.4069H155.324Z" fill="#008CD6"/>
<path d="M179.869 40.7256C179.854 42.2919 179.961 43.857 180.188 45.4068H177.998C177.722 44.1635 177.585 42.8934 177.588 41.6198C176.812 43.4449 174.796 45.9999 170.087 45.9999C164.785 45.9999 162.504 42.3499 162.504 38.6085C162.504 33.1882 166.391 30.7244 173.244 30.7244H177.588V28.215C177.588 25.7512 176.903 22.4479 171.693 22.4479C167.076 22.4479 166.391 25.0577 165.88 27.0834H163.599C163.873 24.3459 165.424 20.1848 171.739 20.1848C176.949 20.1848 179.869 22.5482 179.869 27.9686V40.7256ZM177.633 32.8506H173.153C168.079 32.8506 164.94 34.2832 164.94 38.5173C164.899 39.2171 165.006 39.9178 165.256 40.5729C165.506 41.2279 165.892 41.8224 166.389 42.3168C166.886 42.8113 167.483 43.1944 168.139 43.4408C168.796 43.6872 169.497 43.7912 170.196 43.746C176.739 43.746 177.652 39.0648 177.652 33.7083L177.633 32.8506Z" fill="#008CD6"/>
<path d="M186.824 27.4758C186.824 23.333 186.824 21.5627 186.824 20.7688H189.069C189.115 21.5627 189.16 23.1413 189.16 26.2439C189.696 24.5321 190.746 23.0273 192.169 21.9347C193.591 20.8421 195.316 20.2151 197.108 20.1392V22.8128C192.354 23.1596 189.16 26.7093 189.16 32.5676V45.3429H186.87L186.824 27.4758Z" fill="#008CD6"/>
<path d="M49.5009 15.0018C53.6435 15.0018 57.0018 11.6435 57.0018 7.50089C57.0018 3.35826 53.6435 0 49.5009 0C45.3583 0 42 3.35826 42 7.50089C42 11.6435 45.3583 15.0018 49.5009 15.0018Z" fill="#E61F10"/>
</g>
<defs>
<clipPath id="clip0_39_870">
<rect width="196.657" height="46" fill="white" transform="translate(0.40625)"/>
</clipPath>
</defs>
</svg>
