<svg width="113" height="46" viewBox="0 0 113 46" fill="none" xmlns="http://www.w3.org/2000/svg">
<path d="M17.2389 13.6982V13.6227C19.9936 12.5661 21.088 10.6416 21.088 8.6416C21.088 6.37745 19.7295 4.6416 17.8804 3.81141C16.0314 2.86802 14.0314 2.6416 10.6729 2.6416C7.76721 2.6416 4.63513 2.90575 3.20117 3.13217V26.302C4.48419 26.5284 6.55966 26.6793 9.42759 26.6793C14.4842 26.6793 17.4276 25.9246 19.2012 24.5661C20.7861 23.3586 21.8427 21.6227 21.8427 19.4341C21.8804 16.6416 20.1446 14.5284 17.2389 13.6982ZM9.50306 7.32085C9.91815 7.24538 10.5219 7.1699 11.5785 7.1699C13.7295 7.1699 14.7861 8.03783 14.7861 9.43405C14.7861 10.9435 13.5031 11.8869 10.7861 11.8869H9.54079V7.32085H9.50306ZM11.3144 22.0756C10.5219 22.0756 9.95589 22.0756 9.50306 22.0001V16.4152H11.0125C13.3899 16.4152 15.2012 17.1699 15.2012 19.1699C15.2389 21.2454 13.4276 22.0756 11.3144 22.0756Z" fill="#484848"/>
<path d="M38.7869 2.83008H30.3718L23.5039 26.4527H30.0699L31.3907 20.981H37.5039L39.0133 26.4527H45.8435L38.7869 2.83008ZM32.2209 16.3018L33.2398 12.1131C33.5794 10.7923 33.9567 8.83008 34.2964 7.43385H34.3718C34.7115 8.83008 35.1643 10.7546 35.5416 12.0754L36.636 16.3018H32.2209Z" fill="#484848"/>
<path d="M47.5045 2.83008H53.8442V16.2263C53.8442 19.8112 55.0894 21.8489 57.5423 21.8489C60.0706 21.8489 61.2781 19.9999 61.2781 16.2263V2.83008H67.6177V15.8489C67.6177 23.132 63.9574 26.8301 57.3536 26.8301C50.863 26.8301 47.4668 23.2829 47.4668 15.698V2.83008H47.5045Z" fill="#484848"/>
<path d="M71.957 2.83008H87.3155V7.99989H78.2967V11.8112H86.7872V16.9433H78.2967V21.2829H87.8061V26.4527H71.957V2.83008Z" fill="#484848"/>
<path d="M108.26 19.6982C107.656 17.6604 106.826 16.151 105.241 15.5095V15.3586C107.09 14.6793 109.316 12.6038 109.316 9.66044C109.316 7.35855 108.486 5.66044 106.977 4.52836C105.203 3.20761 102.599 2.71704 98.9768 2.71704C95.807 2.71704 93.1277 2.94346 91.3164 3.20761V26.5284H97.5806V17.585H98.5994C100.562 17.585 101.43 18.1887 102.071 21.0189C102.788 23.9246 103.354 25.7359 103.731 26.4529H110.222C109.732 25.5472 108.977 22.1133 108.26 19.6982ZM99.2409 13.0944H97.5806V7.47176C97.8824 7.39629 98.5239 7.32081 99.7315 7.32081C101.845 7.35855 102.977 8.33968 102.977 10.1133C102.977 11.8869 101.618 13.0944 99.2409 13.0944Z" fill="#484848"/>
<path d="M11.3157 30.2641L10.7497 32.2264C10.2591 31.9622 9.35344 31.5849 8.10816 31.5849C6.56099 31.5849 5.91948 32.415 5.91948 33.1698C5.91948 34.1886 6.6742 34.6792 8.44778 35.3584C10.7497 36.2264 11.8817 37.3962 11.8817 39.283C11.8817 41.3962 10.2591 43.2452 6.82514 43.2452C5.42891 43.2452 3.95722 42.8679 3.24023 42.415L3.76854 40.415C4.56099 40.8679 5.7308 41.2452 6.97608 41.2452C8.52325 41.2452 9.39118 40.5283 9.39118 39.4339C9.39118 38.415 8.71193 37.849 7.01382 37.2075C4.82514 36.415 3.42891 35.2452 3.42891 33.3584C3.42891 31.2075 5.24023 29.5471 8.10816 29.5471C9.57986 29.6226 10.6365 29.9245 11.3157 30.2641Z" fill="#9D9D9C"/>
<path d="M19.6554 29.6226C15.9196 29.6226 13.3535 32.4905 13.3535 36.566C13.3535 40.4527 15.7309 43.3207 19.4667 43.3207C23.1271 43.3207 25.8441 40.7924 25.8441 36.3395C25.8441 32.5282 23.5422 29.6226 19.6554 29.6226ZM19.6177 41.3584C17.278 41.3584 15.9196 39.2075 15.9196 36.5282C15.9196 33.7735 17.2026 31.5471 19.6177 31.5471C22.0328 31.5471 23.278 33.9244 23.278 36.415C23.278 39.2075 21.9573 41.3584 19.6177 41.3584Z" fill="#9D9D9C"/>
<path d="M27.9199 29.8113H30.3728V41.0943H35.8067V43.0943H27.9199V29.8113Z" fill="#9D9D9C"/>
<path d="M44.1085 29.8113H41.0141L36.75 43.0943H39.2406L40.3726 39.3207H44.5991L45.8066 43.0943H48.4104L44.1085 29.8113ZM40.7877 37.5094L41.8066 34.2264C42.033 33.4339 42.2217 32.5283 42.4481 31.7358H42.4858C42.6745 32.4905 42.9009 33.3962 43.1651 34.2264L44.2217 37.5094H40.7877Z" fill="#9D9D9C"/>
<path d="M58.6365 39.3962C58.2969 38.1132 57.7308 37.2075 56.7874 36.8302V36.7547C58.0327 36.3019 59.2025 35.1321 59.2025 33.434C59.2025 32.3019 58.7874 31.3962 58.0705 30.7924C57.1648 30.0377 55.8818 29.7358 53.9573 29.7358C52.561 29.7358 51.2025 29.849 50.2969 30V43.0943H52.712V37.6604H53.9195C55.3157 37.6981 55.9195 38.2641 56.2969 40C56.6742 41.6604 56.9761 42.7547 57.1648 43.1321H59.6554C59.3912 42.6038 59.0516 41.0566 58.6365 39.3962ZM54.1082 35.8868H52.6742V31.6604C52.9006 31.5849 53.3912 31.5472 54.1837 31.5472C55.7686 31.5472 56.7874 32.2264 56.7874 33.6604C56.7874 35.0189 55.7308 35.8868 54.1082 35.8868Z" fill="#9D9D9C"/>
<path d="M64.7876 29.6226H76.0706C76.7499 29.6226 77.2782 30.1509 77.2782 30.8301V42.1131C77.2782 42.7924 76.7499 43.3207 76.0706 43.3207H64.7876C64.1084 43.3207 63.5801 42.7924 63.5801 42.1131V30.8301C63.5801 30.1509 64.1084 29.6226 64.7876 29.6226ZM81.2405 29.6226H92.5235C93.2027 29.6226 93.731 30.1509 93.731 30.8301V42.1131C93.731 42.7924 93.2027 43.3207 92.5235 43.3207H81.2405C80.5612 43.3207 80.0329 42.7924 80.0329 42.1131V30.8301C80.0329 30.1509 80.5612 29.6226 81.2405 29.6226ZM97.6933 29.6226H108.976C109.656 29.6226 110.184 30.1509 110.184 30.8301V42.1131C110.184 42.7924 109.656 43.3207 108.976 43.3207H97.6933C97.014 43.3207 96.4857 42.7924 96.4857 42.1131V30.8301C96.4857 30.1509 97.014 29.6226 97.6933 29.6226Z" fill="#FBBA00"/>
</svg>
