<svg width="250" height="46" viewBox="0 0 250 46" fill="none" xmlns="http://www.w3.org/2000/svg">
<g clip-path="url(#clip0_39_735)">
<mask id="mask0_39_735" style="mask-type:luminance" maskUnits="userSpaceOnUse" x="0" y="0" width="250" height="46">
<path d="M249.804 0H0.863281V46H249.804V0Z" fill="white"/>
</mask>
<g mask="url(#mask0_39_735)">
<path d="M71.7468 6.79623C67.944 1.29709 61.4247 0.222014 57.0174 0.12428C53.1396 0.0395779 36.312 0.0200312 26.5126 0.0135156C7.21277 0.000484411 18.2412 0.00699998 0.863281 0.00699998V8.85516C21.5009 8.85516 45.9958 8.80954 56.7186 8.96592C58.6336 8.99197 60.5283 9.18093 62.0357 10.458C63.4414 11.6503 63.9304 13.5333 63.3056 15.1623C62.2938 17.8011 59.496 18.4591 56.7186 18.4982C52.4674 18.5634 40.7937 18.5829 32.0743 18.596C10.7033 18.622 19.9593 18.609 0.863281 18.609V27.4311C21.4873 27.4311 46.0364 27.3921 56.7186 27.5417C60.0528 27.5875 63.5705 28.7015 63.5705 32.2657C63.5705 35.8296 60.0528 36.9958 56.7186 37.0416C46.0567 37.1915 21.5009 37.1522 0.863281 37.1522V45.9875C21.562 45.9875 48.6508 46.0592 57.0106 45.8703C61.4247 45.7724 67.944 44.6973 71.7401 39.1981C75.3054 34.0378 74.436 27.3074 69.7502 22.994C74.4427 18.6807 75.3121 11.9631 71.7468 6.79623Z" fill="#1F1F1F"/>
<path d="M240.216 5.32326C233.914 0.99039 227.076 0.371408 221.535 0.247613C216.068 0.123817 207.83 0.0716926 200.544 0.0391146C182.772 -0.0260412 193.461 2.11592e-05 176.531 2.11592e-05V8.87425C194.548 8.87425 207.179 8.73089 221.087 9.10879C225.175 9.21957 229.555 9.63005 233.5 12.2623C237.235 14.7513 239.456 18.7193 239.456 23C239.456 27.2807 237.296 31.2551 233.561 33.7443C229.616 36.3701 225.236 36.787 221.147 36.8977C207.24 37.2757 194.609 37.1323 176.592 37.1323L176.531 45.9935C194.649 45.9935 207.674 46.0588 221.535 45.7524C227.083 45.6285 233.921 45.0162 240.216 40.6768C246.193 36.5654 249.812 30.1019 249.812 23C249.805 15.898 246.193 9.43458 240.216 5.32326Z" fill="#1F1F1F"/>
<path d="M102.066 19.8661C97.2379 19.7749 95.7031 18.2632 95.669 13.6502C95.6352 9.38903 95.6555 4.33293 95.6555 0.0065918H85.0143C85.0143 4.37855 84.9259 13.2397 85.1026 17.5205C85.4489 25.8409 88.2941 28.4276 97.1564 28.7209C103.295 28.9227 108.178 28.851 116.667 28.8445V19.9378C109.869 19.9378 107.098 19.9508 102.066 19.8661Z" fill="#1F1F1F"/>
<path d="M154.811 13.8066C154.777 18.2958 153.256 19.7683 148.414 19.8596C146.105 19.9052 140.04 19.9247 135.049 19.9312V19.9378C135.036 19.9378 135.015 19.9378 135.002 19.9378C129.902 19.9378 124.469 19.9312 121.277 19.9312V45.9871H133.786V28.8445C134.166 28.8445 134.581 28.8445 135.002 28.8445C135.015 28.8445 135.036 28.8445 135.049 28.8445V28.8575C141.555 28.851 149.69 28.8316 152.76 28.7404C162.159 28.4665 165.024 25.9191 165.371 17.5205C165.418 16.3998 165.445 14.9794 165.459 13.4222V0.0065918H154.818C154.824 4.44371 154.845 9.42813 154.811 13.8066Z" fill="#1F1F1F"/>
</g>
</g>
<defs>
<clipPath id="clip0_39_735">
<rect width="248.941" height="46" fill="white" transform="translate(0.863281)"/>
</clipPath>
</defs>
</svg>
