<svg width="47" height="46" viewBox="0 0 47 46" fill="none" xmlns="http://www.w3.org/2000/svg">
<g clip-path="url(#clip0_39_782)">
<mask id="mask0_39_782" style="mask-type:luminance" maskUnits="userSpaceOnUse" x="0" y="0" width="47" height="46">
<path d="M46.8047 0H0.804688V46H46.8047V0Z" fill="white"/>
</mask>
<g mask="url(#mask0_39_782)">
<path d="M46.8047 22.9962C46.8047 27.5444 45.4558 31.9904 42.9285 35.7722C40.4012 39.5538 36.8091 42.5013 32.6064 44.2419C28.4037 45.9824 23.7792 46.4378 19.3176 45.5505C14.8561 44.6632 10.7579 42.473 7.54128 39.2569C4.32465 36.0408 2.13409 31.9433 1.24663 27.4825C0.359168 23.0217 0.814677 18.3979 2.55549 14.1959C4.29631 9.99392 7.24427 6.40242 11.0266 3.87555C14.8089 1.3487 19.2558 0 23.8047 0C29.9047 0 35.7549 2.42281 40.0682 6.73545C44.3815 11.048 46.8047 16.8972 46.8047 22.9962Z" fill="white"/>
<path d="M28.9271 35.9353C28.8268 35.8644 28.7044 35.8318 28.5821 35.8433C28.4504 35.8326 28.3194 35.8708 28.2141 35.9507C28.1464 36.0019 28.0932 36.0698 28.0596 36.1477C28.026 36.2256 28.0132 36.3109 28.0225 36.3952V37.752H29.1035C29.1035 37.752 29.1035 36.4719 29.1035 36.3952C29.1166 36.3106 29.108 36.224 29.0785 36.1435C29.049 36.0631 28.9995 35.9914 28.9347 35.9353" fill="#E30513"/>
<path d="M23.8041 5.23476e-05C20.1473 -0.00234246 16.5427 0.867091 13.2891 2.53622C10.0356 4.20535 7.22705 6.62605 5.09642 9.59754C2.96579 12.569 1.57448 16.0056 1.03796 19.6223C0.501445 23.2389 0.83515 26.9313 2.01141 30.3933C3.18767 33.8551 5.17258 36.9867 7.80148 39.5282C10.4304 42.0697 13.6275 43.9477 17.1275 45.0067C20.6276 46.0657 24.3298 46.275 27.9269 45.6172C31.5241 44.9594 34.9125 43.4535 37.8111 41.2245C37.6089 41.2335 37.4066 41.2075 37.2131 41.1478C37.0534 41.0936 36.9106 40.9985 36.7991 40.8719C36.7203 40.7855 36.6556 40.6872 36.6074 40.5806C36.5629 40.4606 36.5421 40.333 36.5461 40.205V39.1242H37.6041V39.9751C37.6 40.0932 37.6292 40.2101 37.6885 40.3124C37.7228 40.3614 37.7689 40.401 37.8224 40.4278C37.8759 40.4546 37.9353 40.4676 37.9951 40.4656H38.0795C38.1515 40.4582 38.2201 40.4306 38.2771 40.3858C38.3341 40.341 38.3773 40.281 38.4015 40.2127C38.409 40.1158 38.409 40.0184 38.4015 39.9214V39.4845C38.3945 39.3257 38.3381 39.173 38.2405 39.0475C38.1065 38.8857 37.9577 38.7368 37.7958 38.6029L37.7038 38.5033C37.3372 38.2253 37.0165 37.8917 36.7531 37.5145C36.5973 37.2283 36.523 36.9048 36.5385 36.5793C36.5261 36.2945 36.5813 36.0108 36.6994 35.7514C36.7856 35.578 36.9183 35.4321 37.0828 35.3298C37.2061 35.2586 37.3373 35.2019 37.4738 35.1612C37.6523 35.1211 37.8352 35.1031 38.0181 35.1075C38.3654 35.0758 38.7139 35.1536 39.0148 35.3298C39.151 35.4391 39.2567 35.5816 39.3215 35.7438C39.3792 35.9006 39.4053 36.0674 39.3981 36.2344V37.1006H38.4092V36.265C38.4158 36.1562 38.3801 36.0491 38.3095 35.966C38.2747 35.9284 38.2317 35.8991 38.1839 35.8805C38.1361 35.8619 38.0846 35.8545 38.0335 35.8588C37.9253 35.8583 37.8209 35.8994 37.7422 35.9737C37.6902 36.0389 37.6518 36.1139 37.6294 36.1943C37.607 36.2746 37.601 36.3586 37.6118 36.4413C37.6043 36.6707 37.6572 36.898 37.7651 37.1006C37.9813 37.3926 38.2397 37.6509 38.5318 37.8671C38.8464 38.0882 39.1082 38.3761 39.2985 38.7103C39.4438 39.0405 39.5095 39.4002 39.4901 39.7604V39.8601C42.8834 36.7147 45.249 32.6191 46.2777 28.1084C47.3064 23.5976 46.9504 18.8816 45.2561 14.5764C43.5619 10.2711 40.6083 6.57697 36.7811 3.97647C32.954 1.376 28.4314 -0.00981678 23.8041 5.23476e-05ZM21.6728 13.0312C23.34 12.4154 25.134 12.2231 26.8938 12.4717L23.0605 16.3043H17.5252C18.5129 14.7838 19.9852 13.6413 21.7035 13.0619L21.6728 13.0312ZM12.1968 12.5023H16.8505L15.2098 16.335H10.5561L12.1968 12.5023ZM16.3828 40.9179C16.0373 41.1821 15.6044 41.3054 15.1715 41.2628C14.941 41.2716 14.7106 41.2431 14.4891 41.1785C14.3393 41.1295 14.2064 41.0392 14.1058 40.9179C14.0142 40.8181 13.9391 40.7042 13.8835 40.5806C13.834 40.4725 13.8104 40.3545 13.8145 40.2357V39.1549H14.8418V39.9827C14.8328 40.119 14.8706 40.2542 14.9491 40.366C15.0334 40.4733 15.1101 40.5116 15.3248 40.4963C15.3972 40.4898 15.4662 40.4624 15.5234 40.4175C15.5805 40.3726 15.6234 40.3122 15.6468 40.2434C15.6581 40.1466 15.6581 40.0488 15.6468 39.9521V39.5075C15.6404 39.3521 15.587 39.2024 15.4935 39.0782C15.324 38.8852 15.1421 38.7034 14.9491 38.534C14.5845 38.2537 14.2642 37.9204 13.9985 37.5451C13.8461 37.2576 13.7721 36.9351 13.7838 36.6099C13.7736 36.3245 13.8314 36.0407 13.9525 35.7821C14.0381 35.6108 14.1678 35.4653 14.3281 35.3605C14.451 35.2883 14.5823 35.2317 14.7191 35.1918C14.9 35.1498 15.0856 35.1318 15.2711 35.1382C15.619 35.0963 15.9708 35.1747 16.2678 35.3605C16.4001 35.469 16.5041 35.608 16.5709 35.7656C16.6377 35.9231 16.6652 36.0945 16.6512 36.265V37.1312H15.6621V36.403V36.357C15.6627 36.2276 15.6163 36.1023 15.5318 36.0044C15.5032 35.9687 15.4671 35.9399 15.426 35.92C15.3849 35.9001 15.3398 35.8897 15.2941 35.8894C15.2387 35.8823 15.1823 35.8891 15.1301 35.9092C15.0779 35.9293 15.0315 35.9619 14.9951 36.0044C14.8977 36.1399 14.8515 36.3056 14.8648 36.472C14.8558 36.7025 14.9116 36.9308 15.0258 37.1312C15.2396 37.4254 15.4983 37.684 15.7925 37.8977C16.1052 38.121 16.3666 38.4085 16.5592 38.7409C16.7046 39.0711 16.7702 39.4308 16.7508 39.7911C16.7727 40.0001 16.7512 40.2115 16.6879 40.4119C16.6246 40.6124 16.5207 40.7976 16.3828 40.9562V40.9179ZM18.8131 43.3785H17.7935L18.2842 41.1555L16.9502 35.2302H18.1002L18.8668 39.6531L19.6335 35.2302H20.7375L18.8131 43.3785ZM23.5435 40.9562C23.1943 41.2189 22.7595 41.3419 22.3244 41.3012C22.0939 41.3094 21.8637 41.2809 21.6422 41.2168C21.4893 41.1652 21.3521 41.0755 21.2435 40.9562C21.1587 40.8543 21.0889 40.7407 21.0365 40.619C20.9963 40.5083 20.9756 40.3917 20.9752 40.274V39.1932H22.0025V40.0441C21.9975 40.1622 22.0268 40.2794 22.0868 40.3813C22.1189 40.4325 22.1646 40.4739 22.2187 40.501C22.2728 40.528 22.3332 40.5397 22.3935 40.5346H22.4778C22.5499 40.5272 22.6184 40.4995 22.6754 40.4547C22.7324 40.41 22.7755 40.35 22.7998 40.2817C22.8147 40.1851 22.8147 40.0869 22.7998 39.9904V39.6608C22.8076 39.4666 22.751 39.2753 22.6388 39.1166C22.5049 38.9547 22.356 38.8059 22.1941 38.672L22.1021 38.5723C21.7356 38.2943 21.4149 37.9607 21.1515 37.5835C20.9956 37.2973 20.9213 36.9738 20.9368 36.6483C20.9245 36.3635 20.9796 36.0798 21.0978 35.8204C21.1905 35.6516 21.3218 35.5071 21.4811 35.3988C21.6019 35.3226 21.7338 35.2658 21.8721 35.2302C22.052 35.1813 22.2378 35.1581 22.4241 35.1612C22.7665 35.1291 23.1103 35.2069 23.4055 35.3835C23.5458 35.4973 23.6586 35.6415 23.7351 35.8051C23.7863 35.9659 23.807 36.1349 23.7965 36.3033V37.1695H22.7998V36.334C22.8081 36.2739 22.802 36.2127 22.782 36.1553C22.762 36.098 22.7287 36.0463 22.6848 36.0044C22.6491 35.9742 22.6074 35.9519 22.5625 35.9387C22.5177 35.9255 22.4705 35.9217 22.4241 35.9277C22.3701 35.9243 22.316 35.9328 22.2657 35.9527C22.2153 35.9725 22.1699 36.0033 22.1328 36.0427C22.0808 36.1079 22.0425 36.1829 22.0201 36.2632C21.9977 36.3436 21.9917 36.4276 22.0025 36.5103C21.995 36.7397 22.0478 36.967 22.1558 37.1695C22.372 37.4616 22.6304 37.7199 22.9225 37.9361C23.2371 38.1571 23.4989 38.4451 23.6891 38.7793C23.8345 39.1095 23.9002 39.4692 23.8808 39.8294C23.9037 40.0379 23.8835 40.2489 23.8216 40.4493C23.7596 40.6497 23.657 40.8353 23.5205 40.9945L23.5435 40.9562ZM26.6331 41.3088H25.8205C25.5528 41.3315 25.2847 41.2698 25.0538 41.1325C24.9374 41.0547 24.8489 40.9421 24.8008 40.8106C24.7506 40.6416 24.7298 40.4653 24.7395 40.2893V36.0274H24.1185V35.2608H24.7395V34.065L25.8051 33.6971V35.2302H26.5718V35.9967H25.8051V39.9367C25.8037 39.9988 25.8155 40.0605 25.8399 40.1177C25.8642 40.1748 25.9004 40.2262 25.9461 40.2683C25.9918 40.3103 26.0459 40.3422 26.1049 40.3617C26.1639 40.3812 26.2264 40.3879 26.2881 40.3813H26.6561L26.6331 41.3088ZM30.1521 36.518V38.6106H28.0285V39.8601C28.0103 39.964 28.0103 40.0704 28.0285 40.1743C28.0585 40.2568 28.1117 40.3286 28.1818 40.3813C28.2898 40.4486 28.415 40.4832 28.5422 40.481C28.6139 40.4845 28.6855 40.4726 28.7523 40.4463C28.8191 40.4199 28.8795 40.3797 28.9295 40.3283C28.9796 40.2768 29.0181 40.2152 29.0425 40.1477C29.0669 40.0802 29.0766 40.0083 29.0711 39.9367V39.1702H30.1138V39.8601C30.1116 40.1081 30.0595 40.3532 29.9605 40.5806C29.8456 40.788 29.6687 40.9542 29.4545 41.0559C29.1249 41.2039 28.765 41.2721 28.4041 41.2552C27.9985 41.2823 27.5986 41.1472 27.2925 40.8796C27.1565 40.7452 27.0506 40.5834 26.9819 40.405C26.9132 40.2266 26.8832 40.0356 26.8938 39.8447V37.1618C26.8459 36.6328 26.9497 36.1011 27.1928 35.6288C27.3219 35.4586 27.4907 35.3229 27.6846 35.2333C27.8784 35.1438 28.0913 35.1032 28.3045 35.1152H28.7338C29.027 35.097 29.3187 35.1692 29.5695 35.3222C29.7346 35.4191 29.87 35.5597 29.9605 35.7284C30.0353 35.8502 30.0848 35.9858 30.1061 36.1271C30.1061 36.242 30.1061 36.3187 30.1061 36.403L30.1521 36.518ZM35.8638 41.1709H34.7981V36.403C34.8132 36.2686 34.7746 36.1336 34.6908 36.0274C34.5987 35.944 34.4776 35.9 34.3535 35.9047C33.9778 35.9047 33.8628 36.0197 33.8628 36.5716V41.1709H32.7435V36.3416C32.7435 36.3416 32.7435 36.0427 32.5211 35.9507C32.4207 35.9234 32.3148 35.9234 32.2145 35.9507C32.1564 35.9563 32.1 35.9734 32.0487 36.001C31.9974 36.0286 31.952 36.0663 31.9155 36.1117C31.8356 36.217 31.7973 36.348 31.8081 36.4797V41.2015H30.7041V35.2072H31.7391V35.8511L31.8618 35.6441C31.9303 35.5389 32.0128 35.4434 32.1071 35.3605C32.213 35.2728 32.3354 35.2073 32.4671 35.1678C32.5988 35.1283 32.7371 35.1156 32.8738 35.1305H32.9198C33.0808 35.1261 33.2398 35.1659 33.3798 35.2455C33.558 35.3663 33.6967 35.537 33.7785 35.7361C33.8814 35.5177 34.054 35.3398 34.2691 35.2302C34.4099 35.1606 34.5645 35.1239 34.7215 35.1229H34.8058C35 35.1249 35.1903 35.1777 35.3578 35.2762C35.513 35.3639 35.6426 35.4907 35.7335 35.6441C35.8281 35.8287 35.8729 36.0348 35.8638 36.2421V41.1709ZM37.3205 30.5619H18.1308L15.8308 25.3955C15.1561 23.9621 14.7651 22.9579 14.0061 22.9579H12.2965L9.01514 30.5619H4.36148L9.31414 19.1559H13.9141C16.8658 19.1559 17.9851 20.16 19.2808 22.9886L22.7461 30.4469L24.4788 26.3307H39.2985L37.3205 30.5619ZM40.3335 19.1482C39.4825 21.0952 38.4168 22.9809 36.3468 22.9809H25.8818C26.7021 20.9112 28.5881 19.1482 30.4128 19.1482H34.8211C35.2231 19.1039 35.6062 18.9545 35.9319 18.7149C36.2577 18.4753 36.5145 18.1542 36.6765 17.7838C37.0445 16.9329 36.7685 16.2507 35.7948 16.2507H28.7108L30.3208 12.418H40.6708C41.9511 12.418 42.9248 13.2459 41.6445 16.2507L40.3335 19.1482Z" fill="#E30513"/>
</g>
</g>
<defs>
<clipPath id="clip0_39_782">
<rect width="46" height="46" fill="white" transform="translate(0.804688)"/>
</clipPath>
</defs>
</svg>
