<svg width="256" height="46" viewBox="0 0 256 46" fill="none" xmlns="http://www.w3.org/2000/svg">
<g clip-path="url(#clip0_39_744)">
<mask id="mask0_39_744" style="mask-type:luminance" maskUnits="userSpaceOnUse" x="0" y="0" width="256" height="46">
<path d="M255.447 0H0.804688V46H255.447V0Z" fill="white"/>
</mask>
<g mask="url(#mask0_39_744)">
<path fill-rule="evenodd" clip-rule="evenodd" d="M3.53184 25.4889H42.1882C42.9275 25.4889 43.6175 25.1932 44.1269 24.6839C44.6525 24.1747 44.9319 23.4682 44.9319 22.7454C44.8989 10.4075 34.8447 0.369629 22.5069 0.369629C14.1283 0.369629 6.52184 4.96963 2.64469 12.3953C1.93826 13.7261 2.44754 15.3853 3.77826 16.0918C5.12541 16.7982 6.76826 16.2725 7.47469 14.9418C10.4154 9.3232 16.1818 5.84035 22.5069 5.84035C30.9019 5.84035 37.9004 12.0011 39.2312 20.0347H3.53184C2.0204 20.0347 0.804688 21.2504 0.804688 22.7617C0.804688 24.2732 2.0204 25.4889 3.53184 25.4889ZM2.6122 32.7997C6.34148 40.6689 14.2108 45.6304 22.8686 45.6304C23.1806 45.6304 23.493 45.6304 23.8051 45.5976C32.1671 45.2527 39.5766 40.3404 43.1578 32.7669C43.8151 31.4032 43.2236 29.7769 41.8601 29.1362C40.4966 28.4789 38.8701 29.0704 38.2293 30.4339C35.5186 36.1677 29.9166 39.8804 23.5916 40.1432C16.7736 40.4226 10.4815 36.6112 7.5572 30.4504C6.90005 29.0869 5.27363 28.5119 3.91005 29.1527C2.54649 29.8097 1.97149 31.4362 2.6122 32.7997Z" fill="#1F1F1F"/>
<path d="M215.018 38.2504C211.288 38.2504 207.478 36.7719 204.833 34.1432C203.863 33.1739 203.863 31.6132 204.833 30.6439C205.803 29.6746 207.363 29.6746 208.333 30.6439C210.96 33.2724 214.953 33.7819 217.533 32.9274C218.665 32.5496 220.063 31.7611 220.308 30.1182C220.523 28.7219 219.766 27.4074 215.396 25.5346L215.133 25.4193C214.834 25.2887 214.571 25.1733 214.328 25.0582C214.131 24.9596 213.72 24.7954 213.293 24.6311L213.241 24.6102C210.462 23.4853 204.768 21.1807 204.865 15.8746C204.931 12.6054 206.903 9.87821 210.138 8.58036C214.673 6.75679 220.373 8.00536 224.021 11.6525C224.99 12.6218 224.99 14.1825 224.021 15.1518C223.053 16.1211 221.491 16.1211 220.523 15.1518C217.975 12.6218 214.295 12.2275 211.978 13.1639C210.55 13.7389 209.828 14.6918 209.793 15.9732C209.761 17.8866 213.213 19.279 215.091 20.0371L215.118 20.0474C215.658 20.2611 216.135 20.4582 216.513 20.6554C216.617 20.7071 216.779 20.7786 216.967 20.8614C217.078 20.9099 217.197 20.9622 217.318 21.0169L217.324 21.0192C219.955 22.1542 226.091 24.7998 225.171 30.8904C224.695 34.0774 222.46 36.5419 219.06 37.6589C217.778 38.0369 216.415 38.2504 215.018 38.2504Z" fill="#1F1F1F"/>
<path fill-rule="evenodd" clip-rule="evenodd" d="M197.357 27.4894L200.214 34.2744C200.74 35.5229 200.149 36.9851 198.9 37.5271C198.589 37.6586 198.277 37.7244 197.947 37.7244C196.979 37.7244 196.059 37.1494 195.664 36.2129L193.429 30.9394H181.618L179.383 36.2129C178.973 37.1494 178.069 37.7244 177.1 37.7244C176.788 37.7244 176.459 37.6586 176.147 37.5271C174.898 37.0016 174.307 35.5559 174.833 34.2909L177.691 27.5222C177.691 27.5141 177.695 27.5099 177.699 27.5059C177.703 27.5016 177.708 27.4976 177.708 27.4894L185.248 9.61508C185.248 9.59102 185.257 9.57579 185.268 9.55645L185.27 9.55392C185.273 9.54755 185.277 9.54071 185.281 9.53293C185.289 9.5083 185.302 9.48775 185.314 9.46723C185.326 9.44668 185.339 9.42615 185.347 9.4015C185.38 9.36871 185.396 9.3359 185.412 9.30308C185.423 9.27215 185.44 9.24754 185.455 9.22548C185.464 9.21267 185.472 9.19995 185.478 9.18793C185.487 9.1715 185.499 9.15508 185.511 9.13865C185.523 9.12223 185.536 9.1058 185.544 9.08938C185.56 9.0565 185.577 9.02365 185.61 8.9908C185.631 8.98022 185.645 8.96282 185.662 8.94298C185.671 8.93209 185.68 8.92029 185.692 8.90865C185.708 8.89223 185.721 8.87578 185.733 8.85936C185.745 8.84293 185.758 8.8265 185.774 8.81008L185.856 8.72795C185.873 8.71152 185.889 8.6992 185.905 8.68688C185.922 8.67455 185.938 8.66223 185.955 8.6458C185.971 8.62938 186.004 8.5965 186.037 8.58008C186.059 8.5657 186.077 8.55133 186.093 8.53833C186.115 8.52166 186.134 8.50717 186.152 8.49793C186.185 8.46508 186.218 8.44865 186.25 8.43223C186.281 8.42191 186.306 8.40514 186.328 8.39C186.341 8.38103 186.353 8.37262 186.365 8.3665C186.382 8.3583 186.402 8.3501 186.423 8.34188C186.443 8.33365 186.464 8.32545 186.48 8.31723C186.497 8.3008 186.53 8.28439 186.562 8.26797L186.579 8.26793C186.612 8.25152 186.645 8.23508 186.694 8.21865C186.707 8.2143 186.719 8.2111 186.73 8.20813C186.761 8.19997 186.785 8.19343 186.809 8.16938C186.825 8.16938 186.842 8.16525 186.858 8.16115C186.875 8.15705 186.891 8.15293 186.908 8.15293C187.088 8.10365 187.285 8.0708 187.466 8.0708H187.598C187.778 8.08723 187.943 8.10365 188.123 8.15293C188.145 8.16014 188.163 8.16418 188.18 8.16784C188.201 8.17252 188.22 8.17656 188.238 8.1858C188.255 8.194 188.271 8.19813 188.288 8.20223C188.304 8.20633 188.32 8.21043 188.337 8.21865C188.362 8.22688 188.382 8.23508 188.403 8.2433C188.423 8.2515 188.444 8.25973 188.468 8.26793H188.485C188.509 8.26793 188.524 8.27675 188.543 8.28792C188.55 8.292 188.558 8.29639 188.567 8.3008C188.601 8.32371 188.636 8.33862 188.664 8.35113C188.677 8.35656 188.688 8.36154 188.698 8.3665C188.715 8.37473 188.731 8.38705 188.748 8.39938C188.764 8.4117 188.78 8.424 188.797 8.43223C188.813 8.44045 188.83 8.45277 188.846 8.4651C188.863 8.47738 188.879 8.48975 188.895 8.49793C188.928 8.51438 188.961 8.5308 188.994 8.56365C189.027 8.58008 189.06 8.5965 189.093 8.62937C189.109 8.6458 189.125 8.65811 189.142 8.67043C189.158 8.68275 189.175 8.69508 189.191 8.7115C189.202 8.73272 189.219 8.7471 189.239 8.76345C189.25 8.77244 189.262 8.78202 189.273 8.79365C189.294 8.80423 189.309 8.82164 189.325 8.84145C189.334 8.85236 189.344 8.86417 189.355 8.8758C189.372 8.89223 189.384 8.90867 189.397 8.9251C189.409 8.94152 189.421 8.95795 189.438 8.97438C189.446 8.9908 189.458 9.00723 189.47 9.02365C189.483 9.04008 189.495 9.0565 189.503 9.07295C189.512 9.08938 189.524 9.1058 189.536 9.12223C189.548 9.13865 189.561 9.15508 189.569 9.1715C189.577 9.18789 189.589 9.20426 189.602 9.22065C189.614 9.23707 189.626 9.25365 189.635 9.27008C189.668 9.30291 189.684 9.33574 189.7 9.36858C189.733 9.41787 189.75 9.4508 189.766 9.50008C189.766 9.52413 189.775 9.53939 189.786 9.55873L189.791 9.56676C189.794 9.57155 189.796 9.57665 189.799 9.58223L197.339 27.4566C197.357 27.4729 197.357 27.4729 197.357 27.4894ZM187.532 16.9094L183.704 25.9616H191.343L187.532 16.9094Z" fill="#1F1F1F"/>
<path d="M77.345 32.7628H63.0192V24.8278H73.1885C74.5522 24.8278 75.6529 23.7271 75.6529 22.3635C75.6529 21 74.5522 19.8993 73.1885 19.8993H63.0192V13.0157H76.31C77.6735 13.0157 78.7742 11.915 78.7742 10.5514C78.7742 9.18786 77.6735 8.08716 76.31 8.08716H60.5385C59.175 8.08716 58.0742 9.18786 58.0742 10.5514V35.2271C58.0742 36.5908 59.175 37.6915 60.5385 37.6915H77.345C78.7085 37.6915 79.8092 36.5908 79.8092 35.2271C79.8092 33.8635 78.725 32.7628 77.345 32.7628Z" fill="#1F1F1F"/>
<path d="M251.406 32.7628H237.064V24.8278H247.234C248.596 24.8278 249.714 23.7271 249.714 22.3635C249.714 21 248.614 19.8993 247.234 19.8993H237.064V13.0157H250.354C251.719 13.0157 252.819 11.915 252.819 10.5514C252.819 9.18786 251.719 8.08716 250.354 8.08716H234.584C233.219 8.08716 232.102 9.18786 232.102 10.5514V35.2271C232.102 36.5908 233.204 37.6915 234.584 37.6915H251.389C252.754 37.6915 253.854 36.5908 253.854 35.2271C253.854 33.8635 252.769 32.7628 251.406 32.7628Z" fill="#1F1F1F"/>
<path d="M107.837 37.7078H107.213C106.457 37.7078 105.734 37.3628 105.258 36.755L89.8973 17.0736V35.2271C89.8973 36.5908 88.7965 37.6915 87.433 37.6915C86.0693 37.6915 84.9688 36.5908 84.9688 35.2271V10.5514C84.9688 9.18786 86.0693 8.08716 87.433 8.08716H87.9587C88.7143 8.08716 89.4373 8.43216 89.9137 9.04001L105.389 28.8528V10.5514C105.389 9.18786 106.49 8.08716 107.854 8.08716C109.217 8.08716 110.318 9.18786 110.318 10.5514V35.2271C110.302 36.5908 109.201 37.7078 107.837 37.7078Z" fill="#1F1F1F"/>
<path d="M164.598 10.5514C164.598 9.18786 165.699 8.08716 167.063 8.08716C168.426 8.08716 169.527 9.18786 169.527 10.5514V35.2108C169.527 36.5743 168.426 37.675 167.063 37.675C165.699 37.675 164.598 36.5743 164.598 35.2108V24.8115H150.503V35.2108C150.503 36.5743 149.402 37.675 148.038 37.675C146.675 37.675 145.574 36.5743 145.574 35.2108V10.5514C145.574 9.18786 146.675 8.08716 148.038 8.08716C149.402 8.08716 150.503 9.18786 150.503 10.5514V19.8828H164.598V10.5514Z" fill="#1F1F1F"/>
<path fill-rule="evenodd" clip-rule="evenodd" d="M118.09 35.2436C118.09 36.6072 119.191 37.7079 120.554 37.7079C121.918 37.7079 123.018 36.5909 123.035 35.2436V26.5694H130.707C136.243 26.5694 140.268 22.6759 140.268 17.3201C140.268 11.9644 136.243 8.0708 130.707 8.0708H120.554C119.191 8.0708 118.09 9.18793 118.09 10.5515V35.2436ZM130.691 21.6079H123.018V12.9994H130.691C133.5 12.9994 135.307 14.6915 135.307 17.3037C135.307 19.9159 133.5 21.6079 130.691 21.6079Z" fill="#1F1F1F"/>
</g>
</g>
<defs>
<clipPath id="clip0_39_744">
<rect width="254.917" height="46" fill="white" transform="translate(0.804688)"/>
</clipPath>
</defs>
</svg>
