<svg width="346" height="46" viewBox="0 0 346 46" fill="none" xmlns="http://www.w3.org/2000/svg">
<path d="M15.0095 0L1.64288 30.7119C0.920654 32.3753 0.623476 34.1921 0.778109 35.9989C0.932743 37.8056 1.53433 39.5456 2.5287 41.062C3.52307 42.5784 4.879 43.8237 6.47438 44.6857C8.06976 45.5477 9.85449 45.9994 11.6679 46H47.8308L52.7494 36.706H26.9142C26.1874 36.7057 25.4724 36.5221 24.8353 36.1723C24.1983 35.8225 23.6597 35.3177 23.2693 34.7046C22.879 34.0915 22.6495 33.3899 22.6021 32.6647C22.5547 31.9394 22.6909 31.2139 22.9982 30.5553L37.2733 0H15.0095Z" fill="#BE9F57"/>
<path d="M72.6017 0H95.1161L80.8096 29.0411C80.4101 29.8518 80.2239 30.751 80.2686 31.6537C80.3133 32.5564 80.5875 33.4328 81.0652 34.2001C81.5429 34.9673 82.2084 35.6001 82.9987 36.0386C83.789 36.4771 84.6781 36.7068 85.5819 36.706H97.9356C98.9624 36.7085 99.968 36.4141 100.831 35.8583C101.695 35.3025 102.379 34.5089 102.802 33.5732L117.62 0H139.832L127.081 27.9551C124.633 33.3307 120.692 37.8896 115.726 41.0888C110.761 44.288 104.981 45.9927 99.0738 46H67.9129C66.162 46.0029 64.4385 45.5654 62.9009 44.728C61.3633 43.8905 60.061 42.6799 59.1137 41.2074C58.1663 39.735 57.6045 38.048 57.4797 36.3015C57.3549 34.5551 57.6712 32.8053 58.3996 31.2132L72.6017 0Z" fill="#BE9F57"/>
<path d="M144.842 0L154.867 19.0161L125.23 46H148.236L162.532 32.2888L168.724 46H189.505L179.188 24.6238L205.723 0H183.02L171.669 11.9464L165.477 0H144.842Z" fill="#BE9F57"/>
<path d="M260.172 3.96408e-06H235.82C228.977 0.00168062 222.282 1.99512 216.552 5.73713C210.822 9.47913 206.305 14.8079 203.552 21.0733L199.208 30.9834C198.491 32.6134 198.191 34.3967 198.337 36.1717C198.482 37.9467 199.069 39.6573 200.042 41.1485C201.016 42.6397 202.346 43.8644 203.913 44.7115C205.48 45.5587 207.233 46.0015 209.014 46H241C247.005 45.9999 252.867 44.1631 257.798 40.736C262.73 37.309 266.495 32.4557 268.589 26.8272L272.15 17.2304C272.87 15.298 273.112 13.22 272.854 11.174C272.596 9.12801 271.846 7.1749 270.669 5.48164C269.492 3.78839 267.922 2.40534 266.094 1.45074C264.267 0.496143 262.235 -0.00162065 260.172 3.96408e-06ZM251.599 16.0817L245.647 29.7094C244.737 31.7888 243.241 33.558 241.342 34.8006C239.443 36.0433 237.223 36.7054 234.953 36.706H225.555C224.806 36.7049 224.069 36.5224 223.406 36.1743C222.743 35.8262 222.175 35.3227 221.749 34.707C221.323 34.0913 221.053 33.3816 220.961 32.6386C220.869 31.8956 220.958 31.1413 221.221 30.4404L225.471 19.3503C226.594 16.4159 228.583 13.8925 231.174 12.115C233.764 10.3375 236.835 9.39007 239.976 9.39841H247.171C247.966 9.39724 248.748 9.59308 249.448 9.9684C250.148 10.3437 250.744 10.8868 251.183 11.549C251.622 12.2112 251.889 12.9719 251.962 13.763C252.035 14.554 251.91 15.3507 251.599 16.0817Z" fill="#BE9F57"/>
<path d="M336.467 0H291.824L271.336 46H293.746L301.849 27.2763H308.783L310.183 46H331.757L328.217 27.2763C331.458 27.278 334.619 26.2745 337.266 24.4042C339.912 22.534 341.913 19.8889 342.994 16.8336L344.79 11.8002C345.26 10.467 345.404 9.04066 345.21 7.64037C345.016 6.24008 344.49 4.90658 343.675 3.75136C342.86 2.59613 341.781 1.65277 340.527 1.00013C339.273 0.347496 337.881 0.00456087 336.467 0ZM327.768 12.7714L325.92 17.2304C325.646 17.8912 325.182 18.456 324.587 18.8537C323.993 19.2514 323.294 19.4641 322.578 19.4652H305.243L310.183 8.40636H324.802C325.328 8.39194 325.848 8.50996 326.316 8.74955C326.784 8.98915 327.184 9.34261 327.48 9.77739C327.775 10.2122 327.956 10.7143 328.007 11.2375C328.057 11.7607 327.975 12.2882 327.768 12.7714Z" fill="#BE9F57"/>
</svg>
