<svg width="80" height="46" viewBox="0 0 80 46" fill="none" xmlns="http://www.w3.org/2000/svg">
<g clip-path="url(#clip0_39_817)">
<path opacity="0.99" fill-rule="evenodd" clip-rule="evenodd" d="M62.3588 0H62.4449C63.5354 1.52026 64.2979 3.25058 64.6841 5.08116C66.3918 5.42618 68.0065 6.13077 69.4208 7.14807L64.7702 7.32031C64.7639 9.92118 64.0175 12.2752 62.5311 14.3823C62.4737 12.0283 62.4162 9.6743 62.3588 7.32031L55.2969 7.14807C57.3562 5.67646 59.8277 4.89281 62.3588 4.90892V0Z" fill="#BD211C"/>
<path opacity="0.31" fill-rule="evenodd" clip-rule="evenodd" d="M55.2972 7.14819L62.3592 7.32044C59.9478 7.33479 57.5364 7.32044 55.125 7.27738C55.1681 7.21798 55.2282 7.17296 55.2972 7.14819Z" fill="#CD5451"/>
<path opacity="0.31" fill-rule="evenodd" clip-rule="evenodd" d="M69.4201 7.14799C69.4707 7.14492 69.5212 7.15524 69.5666 7.17792C69.612 7.2006 69.6505 7.23483 69.6784 7.27717C68.0421 7.32023 66.4058 7.33459 64.7695 7.32023L69.4201 7.14799Z" fill="#CE5652"/>
<path opacity="0.11" fill-rule="evenodd" clip-rule="evenodd" d="M62.3609 7.32031C62.4183 9.6743 62.4757 12.0283 62.5331 14.3823C62.5083 14.4514 62.4633 14.5114 62.4039 14.5545C62.3609 12.1431 62.3465 9.73171 62.3609 7.32031Z" fill="#DD8C8B"/>
<path opacity="0.11" fill-rule="evenodd" clip-rule="evenodd" d="M72.5229 10.1623C72.4654 12.5456 72.408 14.9282 72.3506 17.3104V17.2242C72.3219 14.8404 72.3506 12.4577 72.4367 10.0762C72.4589 10.0781 72.4797 10.0878 72.4955 10.1036C72.5112 10.1193 72.5209 10.1401 72.5229 10.1623Z" fill="#DD8C8B"/>
<path opacity="0.99" fill-rule="evenodd" clip-rule="evenodd" d="M72.5195 10.1624C73.9914 12.2216 74.775 14.6932 74.7587 17.2243L79.4954 17.3965C78.0531 18.4773 76.3674 19.1871 74.5864 19.4635C74.2859 21.2639 73.579 22.9721 72.5195 24.4585C72.4334 22.8658 72.4047 21.2582 72.4334 19.6357H71.8306C69.4477 19.5595 67.1405 18.7805 65.1992 17.3965C67.567 17.3104 69.9497 17.2817 72.3473 17.3104C72.4047 14.9277 72.4621 12.545 72.5195 10.1624Z" fill="#BD1F1B"/>
<path opacity="0.98" fill-rule="evenodd" clip-rule="evenodd" d="M25.7569 14.7267C28.0133 14.4523 30.1089 14.8972 32.0438 16.0616C33.9706 17.5159 35.0902 19.4536 35.4025 21.8748H29.8907C29.4504 20.0605 28.3021 19.2998 26.4459 19.5926C25.359 19.8796 24.7131 20.583 24.5081 21.7025C24.4283 22.1619 24.3709 22.6212 24.3359 23.0805C24.2785 24.9177 24.2785 26.755 24.3359 28.5923C24.3346 29.5378 24.6035 30.4641 25.111 31.262C26.2466 32.1956 27.4667 32.3248 28.7711 31.6496C29.3273 31.1993 29.7206 30.5791 29.8907 29.8841C31.728 29.798 33.5652 29.7692 35.4025 29.798C34.5585 34.3831 31.8026 36.7657 27.1348 36.946C24.1097 36.8886 21.7413 35.6255 20.0298 33.1567C19.3345 31.8559 18.9512 30.4112 18.9102 28.9367C18.8528 26.8411 18.8528 24.7455 18.9102 22.6499C19.1824 18.2588 21.4646 15.6178 25.7569 14.7267Z" fill="#161616"/>
<path opacity="0.98" fill-rule="evenodd" clip-rule="evenodd" d="M0.265625 14.8989C3.5101 14.8846 6.75401 14.8989 9.99734 14.942C13.9492 15.5931 16.0735 17.9184 16.3703 21.9178C16.2555 24.4888 15.0785 26.3979 12.8393 27.6449C14.3671 30.6729 15.9173 33.6872 17.4899 36.6876C15.423 36.7881 13.3561 36.8025 11.2892 36.7307C9.98643 34.0535 8.69461 31.3694 7.4137 28.6784C6.84385 28.5924 6.26685 28.5636 5.69127 28.5922C5.7062 31.2907 5.69184 33.9892 5.64821 36.6876C3.86033 36.7732 2.06614 36.8019 0.265625 36.7738V14.8989ZM5.69127 19.7217C6.78214 19.7074 7.87301 19.7217 8.96388 19.7648C10.161 19.9858 10.8212 20.7035 10.9447 21.9178C10.8207 23.1333 10.1604 23.851 8.96388 24.0709C7.87301 24.1139 6.78214 24.1283 5.69127 24.1139V19.7217Z" fill="#161616"/>
<path opacity="0.97" fill-rule="evenodd" clip-rule="evenodd" d="M36.8672 14.8989H52.9719V19.7217H47.6324C47.6467 25.3776 47.6324 31.0329 47.5893 36.6876C46.7057 36.745 45.8158 36.7738 44.9195 36.7738C44.0233 36.7738 43.1334 36.745 42.2498 36.6876C42.2067 31.0323 42.1924 25.377 42.2067 19.7217H36.8672V14.8989Z" fill="#161616"/>
<path opacity="0.02" fill-rule="evenodd" clip-rule="evenodd" d="M72.3475 17.2244V17.3105C69.9499 17.2818 67.5672 17.3105 65.1994 17.3966C65.1772 17.3947 65.1564 17.385 65.1407 17.3692C65.1249 17.3535 65.1152 17.3327 65.1133 17.3105C67.5247 17.2244 69.9361 17.1957 72.3475 17.2244Z" fill="#EAB7B7"/>
<path opacity="0.02" fill-rule="evenodd" clip-rule="evenodd" d="M74.7617 17.2244H79.5845V17.3966H79.4984L74.7617 17.2244Z" fill="#E9B5B5"/>
<path opacity="0.11" fill-rule="evenodd" clip-rule="evenodd" d="M71.832 19.6357H72.4349C72.4062 21.2583 72.4349 22.8659 72.521 24.4585C72.4962 24.5276 72.4512 24.5877 72.3918 24.6308C72.3488 22.9945 72.3344 21.3582 72.3488 19.7219C72.1717 19.7495 71.9905 19.7193 71.832 19.6357Z" fill="#DE908F"/>
<path opacity="0.98" fill-rule="evenodd" clip-rule="evenodd" d="M62.359 27.3004L69.5071 27.4727C67.3787 28.9861 64.996 29.7612 62.359 29.7979C62.3734 31.4055 62.359 33.0131 62.3159 34.6207C61.1964 33.1314 60.4707 31.3838 60.206 29.5396C58.3852 29.2576 56.6662 28.5166 55.2109 27.3865H60.0337V26.6976C60.117 24.3356 60.9125 22.054 62.3159 20.1523C62.359 22.5356 62.3734 24.9183 62.359 27.3004Z" fill="#BD201B"/>
<path opacity="0.02" fill-rule="evenodd" clip-rule="evenodd" d="M60.0337 26.6975V27.3865H55.2109C56.7255 27.3004 58.3044 27.2717 59.9476 27.3004C59.9194 27.0953 59.9493 26.8865 60.0337 26.6975Z" fill="#E9B5B5"/>
<path opacity="0.02" fill-rule="evenodd" clip-rule="evenodd" d="M62.3594 27.3006C64.7708 27.2719 67.1822 27.3006 69.5936 27.3867C69.5916 27.4089 69.5819 27.4297 69.5662 27.4454C69.5504 27.4612 69.5296 27.4709 69.5074 27.4728L62.3594 27.3006Z" fill="#E9B6B6"/>
<g opacity="0.97">
<path d="M28.2019 45.3266C28.8156 45.3266 29.1228 45.1179 29.1234 44.7005C29.1273 44.6221 29.1146 44.5438 29.0859 44.4707C29.0572 44.3977 29.0134 44.3316 28.9572 44.2768C28.8469 44.1717 28.6445 44.083 28.3491 44.0089L27.8428 43.8798C27.4673 43.7873 27.1877 43.6263 27.0039 43.3966C26.8184 43.1623 26.7206 42.8704 26.7275 42.5716C26.7255 42.3455 26.7793 42.1225 26.8842 41.9222C26.9972 41.7141 27.1708 41.5453 27.382 41.4382C27.6569 41.304 27.9608 41.24 28.2665 41.2522C28.5066 41.2528 28.7459 41.2791 28.9804 41.3306C29.2373 41.3877 29.4863 41.476 29.7219 41.5932L29.4825 42.2288C29.0341 42.0261 28.6288 41.9248 28.2665 41.9248C27.7319 41.9248 27.4647 42.1257 27.4647 42.5276C27.462 42.6736 27.5146 42.8151 27.612 42.9238C27.7101 43.034 27.8944 43.1236 28.1649 43.1908L28.6721 43.32C29.074 43.4181 29.372 43.5778 29.566 43.7988C29.763 44.0398 29.8645 44.3448 29.8511 44.6557C29.8549 44.8951 29.7996 45.1318 29.6901 45.3447C29.5751 45.558 29.3937 45.7279 29.1733 45.8287C28.9368 45.9435 28.6187 46.0009 28.2191 46.0009C27.9544 45.9997 27.6906 45.9708 27.432 45.9148C27.1543 45.8546 26.8838 45.7651 26.625 45.6478L26.8282 45.0209C27.0614 45.1161 27.3015 45.1933 27.5465 45.2517C27.7614 45.3012 27.9813 45.3263 28.2019 45.3266Z" fill="#161616"/>
<path d="M34.7336 43.3458V43.8987C34.7336 44.5498 34.5662 45.0628 34.2315 45.4377C33.8968 45.8126 33.4191 45.9998 32.7984 45.9992C32.1847 45.9992 31.7087 45.812 31.3705 45.4377C31.0324 45.0634 30.8633 44.5504 30.8633 43.8987V43.3458C30.8633 42.7068 31.0306 42.1984 31.3654 41.8206C31.7001 41.4428 32.1778 41.2533 32.7984 41.2522C33.4191 41.2522 33.8968 41.4411 34.2315 41.8189C34.5662 42.1967 34.7336 42.7056 34.7336 43.3458ZM33.9507 43.3458C33.9507 42.9095 33.8523 42.567 33.6553 42.3184C33.4584 42.0698 33.1728 41.944 32.7984 41.9412C32.4298 41.9412 32.1459 42.0658 31.9467 42.3149C31.7475 42.5641 31.6476 42.9066 31.647 43.3424V43.8953C31.647 44.35 31.7469 44.7002 31.9467 44.9459C32.1465 45.1917 32.4304 45.3145 32.7984 45.3145C33.1728 45.3145 33.4584 45.1917 33.6553 44.9459C33.8523 44.7002 33.9507 44.35 33.9507 43.8953V43.3458Z" fill="#161616"/>
<path d="M36.1653 44.8013V39.0889H36.9206V44.7651C36.9121 44.8943 36.9392 45.0232 36.9989 45.138C37.0506 45.2242 37.1574 45.262 37.3167 45.262H37.464V45.951H37.2521C36.8462 45.951 36.5637 45.8434 36.4047 45.6281C36.2368 45.386 36.1527 45.0956 36.1653 44.8013Z" fill="#161616"/>
<path d="M41.4785 45.9072V45.2621C41.2235 45.4961 40.9346 45.6904 40.6216 45.8383C40.3835 45.9429 40.1265 45.9977 39.8663 45.9993C39.4604 45.9993 39.1501 45.8658 38.9354 45.5989C38.7206 45.3319 38.6133 44.9555 38.6133 44.4698V41.3462H39.3686V44.3604C39.3686 44.6797 39.426 44.9145 39.5408 45.0649C39.6014 45.1412 39.6796 45.2017 39.7687 45.2411C39.8578 45.2805 39.9551 45.2978 40.0524 45.2914C40.2523 45.2854 40.4492 45.2416 40.6328 45.1622C40.923 45.0285 41.193 44.8546 41.4346 44.6455V41.3462H42.1899V45.9106L41.4785 45.9072Z" fill="#161616"/>
<path d="M46.3901 45.7416C46.0501 45.9126 45.6745 46.0012 45.2938 46C44.9622 46 44.7022 45.9328 44.5187 45.7976C44.3319 45.6636 44.193 45.4731 44.1226 45.2542C44.0432 45.0101 44.0042 44.7547 44.0072 44.498V42.0091H43.2148V41.346H44.0072V40.074H44.7624V41.346H46.2515V42.0091H44.759V44.4696C44.759 44.7894 44.813 45.009 44.9209 45.1284C45.0277 45.2481 45.1956 45.3084 45.423 45.3084C45.539 45.3077 45.6546 45.2938 45.7675 45.2671C45.903 45.234 46.0344 45.1861 46.1593 45.1241L46.3901 45.7416Z" fill="#161616"/>
<path d="M48.2545 40.2307H47.4062V39.3833H48.2545V40.2307ZM48.208 45.907H47.4528V41.3426H48.208V45.907Z" fill="#161616"/>
<path d="M53.5148 43.3458V43.8987C53.5148 44.5498 53.3475 45.0628 53.0127 45.4377C52.678 45.8126 52.2003 45.9998 51.5797 45.9992C50.9653 45.9992 50.4894 45.812 50.1518 45.4377C49.8142 45.0634 49.6451 44.5504 49.6445 43.8987V43.3458C49.6445 42.7068 49.8119 42.1984 50.1466 41.8206C50.4813 41.4428 50.959 41.2533 51.5797 41.2522C52.2003 41.2522 52.678 41.4411 53.0127 41.8189C53.3475 42.1967 53.5148 42.7056 53.5148 43.3458ZM52.732 43.3458C52.732 42.9095 52.6335 42.567 52.4366 42.3184C52.2397 42.0698 51.954 41.944 51.5797 41.9412C51.2111 41.9412 50.9269 42.0658 50.7271 42.3149C50.5273 42.5641 50.4277 42.9066 50.4282 43.3424V43.8953C50.4282 44.35 50.5278 44.7002 50.7271 44.9459C50.9263 45.1917 51.2105 45.3145 51.5797 45.3145C51.954 45.3145 52.2397 45.1917 52.4366 44.9459C52.6335 44.7002 52.732 44.35 52.732 43.8953V43.3458Z" fill="#161616"/>
<path d="M57.1475 41.9636C56.9405 41.9709 56.7365 42.0147 56.5446 42.0928C56.2412 42.2236 55.96 42.4008 55.711 42.6181V45.9071H54.9531V41.3426H55.6722V41.9782C55.9356 41.741 56.2358 41.5482 56.561 41.4072C56.8056 41.3074 57.0668 41.2543 57.3309 41.2505C57.7547 41.2505 58.0788 41.384 58.3032 41.651C58.5277 41.9179 58.6397 42.2974 58.6391 42.7895V45.9036H57.8813V42.9032C57.8813 42.2773 57.6367 41.9641 57.1475 41.9636Z" fill="#161616"/>
<path d="M61.3929 45.3266C62.0072 45.3266 62.3144 45.1179 62.3144 44.7005C62.3182 44.6221 62.3053 44.5438 62.2767 44.4708C62.248 44.3978 62.2042 44.3316 62.1482 44.2768C62.0371 44.1717 61.8347 44.083 61.5402 44.0089L61.0329 43.8797C60.6586 43.7873 60.3792 43.6263 60.1949 43.3966C60.0094 43.1622 59.9116 42.8704 59.9185 42.5716C59.9164 42.3456 59.97 42.1226 60.0744 41.9222C60.1876 41.7143 60.3611 41.5455 60.5722 41.4382C60.8471 41.304 61.151 41.2401 61.4566 41.2522C61.697 41.2528 61.9366 41.279 62.1714 41.3305C62.4283 41.388 62.6772 41.4762 62.9129 41.5932L62.6735 42.2288C62.2938 42.0429 61.8791 41.9393 61.4566 41.9248C60.9227 41.9248 60.6557 42.1257 60.6557 42.5276C60.653 42.6735 60.7056 42.8151 60.803 42.9238C60.9011 43.034 61.0854 43.1236 61.3559 43.1908L61.8623 43.3199C62.2682 43.4181 62.5662 43.5777 62.7562 43.7988C62.9543 44.0387 63.0572 44.3431 63.0456 44.654C63.049 44.8933 62.9937 45.1299 62.8845 45.3429C62.7697 45.5563 62.5882 45.7263 62.3678 45.8269C62.1318 45.9418 61.814 45.9992 61.4144 45.9992C61.1495 45.998 60.8854 45.9691 60.6264 45.9131C60.3491 45.8527 60.0789 45.7632 59.8203 45.6461L60.0227 45.0191C60.2562 45.1143 60.4966 45.1914 60.7418 45.2499C60.9553 45.2998 61.1737 45.3255 61.3929 45.3266Z" fill="#161616"/>
</g>
</g>
<defs>
<clipPath id="clip0_39_817">
<rect width="79.3178" height="46" fill="white" transform="translate(0.265625)"/>
</clipPath>
</defs>
</svg>
