<svg width="75" height="46" viewBox="0 0 75 46" fill="none" xmlns="http://www.w3.org/2000/svg">
<g clip-path="url(#clip0_39_845)">
<path fill-rule="evenodd" clip-rule="evenodd" d="M6.80231 0.207949L74.6154 0.0136719V39.7186C74.6154 41.3571 73.9645 42.9284 72.806 44.087C71.6474 45.2455 70.076 45.8964 68.4376 45.8964H0.640625V6.38688C0.640315 4.75102 1.28884 3.18181 2.44396 2.02347C3.59907 0.865121 5.16646 0.212211 6.80231 0.207949Z" fill="#FEFEFE"/>
<path fill-rule="evenodd" clip-rule="evenodd" d="M5.64062 0.128714C28.6519 0.0152902 51.6816 -0.0230288 74.7297 0.0137574V23.465H68.2921C70.3797 23.3508 72.4873 23.3125 74.6148 23.35V0.128714H5.64062Z" fill="#1C487B"/>
<path fill-rule="evenodd" clip-rule="evenodd" d="M5.64013 0.128662H74.6143V23.35C72.4868 23.3116 70.3793 23.35 68.2916 23.4649C44.4066 24.462 21.1502 31.4171 0.63951 43.6973C0.562872 30.7846 0.562872 17.8711 0.63951 4.95685C1.2756 2.27146 2.94248 0.662062 5.64013 0.128662Z" fill="#1C487B"/>
<path fill-rule="evenodd" clip-rule="evenodd" d="M19.5486 19.2116C19.4978 19.2515 19.4598 19.3055 19.4393 19.3668C19.4189 19.4281 19.4169 19.4941 19.4336 19.5565C18.6216 19.6331 17.8025 19.5551 17.0195 19.3266C17.8311 15.0348 18.5975 10.7431 19.3187 6.45139C19.896 6.41428 20.4757 6.45293 21.043 6.56635C22.1796 9.33911 23.3483 12.0981 24.5492 14.8432C25.7448 12.0797 26.9518 9.32072 28.1704 6.56635C28.7377 6.45293 29.3174 6.41428 29.8947 6.45139C30.6113 10.8611 31.3393 15.2678 32.0789 19.6714H29.5498C29.2264 17.0826 28.8241 14.5152 28.3428 11.9693C27.2292 14.5037 26.118 17.0328 25.009 19.5565C24.8931 19.6797 24.7378 19.7587 24.5699 19.7796C24.402 19.8006 24.2321 19.7624 24.0894 19.6714C22.9781 17.0657 21.8669 14.4601 20.7556 11.8544C20.2636 14.2838 19.8613 16.7362 19.5486 19.2116Z" fill="#FBFCFC"/>
<path fill-rule="evenodd" clip-rule="evenodd" d="M38.7484 6.45142H40.7027C42.3994 10.8428 44.1621 15.2111 45.9907 19.5565C45.1543 19.6911 44.3033 19.7104 43.4616 19.614C43.0313 18.7735 42.6475 17.9101 42.3121 17.0275C40.5494 16.9133 38.7867 16.8749 37.024 16.9125C36.6631 17.78 36.3182 18.6614 35.9894 19.5565C35.0746 19.6718 34.1517 19.7102 33.2305 19.6715C35.0253 15.2479 36.8646 10.8412 38.7484 6.45142Z" fill="#FBFBFC"/>
<path fill-rule="evenodd" clip-rule="evenodd" d="M11.3873 6.68136C12.833 6.66315 14.2311 7.19771 15.2959 8.1758C14.8756 8.69316 14.393 9.15652 13.8589 9.55528C13.3991 9.17479 12.873 8.88249 12.307 8.6931C10.7359 8.38655 9.9887 9.01882 10.0653 10.5899L10.4677 10.9922C11.7207 11.5839 12.9852 12.1587 14.2613 12.7166C15.5028 13.7995 15.9435 15.1598 15.5833 16.7976C15.1441 18.5043 14.052 19.5197 12.307 19.8439C9.95957 20.28 8.12026 19.5136 6.78906 17.5448L8.45594 16.1078C8.90331 16.67 9.47352 17.1222 10.1228 17.4298C11.4839 17.9586 12.4994 17.5946 13.1692 16.3377C13.2987 15.543 13.0113 14.9491 12.307 14.5559C11.254 14.1796 10.2194 13.7581 9.20316 13.2914C7.4788 11.9885 7.11477 10.36 8.11107 8.40571C8.50365 7.90239 8.99881 7.48833 9.56368 7.19104C10.1285 6.89374 10.7502 6.72 11.3873 6.68136Z" fill="#FAFBFC"/>
<path fill-rule="evenodd" clip-rule="evenodd" d="M39.6658 10.3599C39.7184 10.3562 39.7706 10.3716 39.8128 10.4033C39.8551 10.435 39.8845 10.4808 39.8957 10.5323C40.416 11.9379 40.9525 13.3365 41.5051 14.7283C40.3219 14.8629 39.1283 14.8822 37.9414 14.7858C38.5955 13.3426 39.1711 11.8652 39.6658 10.3599Z" fill="#1F497C"/>
<path fill-rule="evenodd" clip-rule="evenodd" d="M19.5498 19.2117V19.6715H16.9058C16.889 19.6091 16.891 19.5431 16.9115 19.4818C16.9319 19.4205 16.9699 19.3665 17.0207 19.3266C17.8037 19.5552 18.6228 19.6332 19.4348 19.5565C19.4181 19.4941 19.4201 19.4282 19.4405 19.3668C19.4609 19.3055 19.4989 19.2516 19.5498 19.2117Z" fill="#B5C3D4"/>
<path fill-rule="evenodd" clip-rule="evenodd" d="M69.2118 45.8816C47.1976 45.9207 25.2025 45.8824 3.22656 45.7666C25.3052 32.9045 49.1396 26.5052 74.7297 26.5688C74.7489 31.2062 74.7297 35.8428 74.6723 40.4786C74.1642 43.6116 72.344 45.4126 69.2118 45.8816Z" fill="#D02E26"/>
<path fill-rule="evenodd" clip-rule="evenodd" d="M3.22601 45.7666C25.2027 45.8816 47.1978 45.9199 69.2113 45.8816C47.1595 46.0157 25.0877 46.0348 2.99609 45.939C3.05435 45.8604 3.13425 45.8005 3.22601 45.7666Z" fill="#D02E26"/>
</g>
<defs>
<clipPath id="clip0_39_845">
<rect width="74.1541" height="46" fill="white" transform="translate(0.582031)"/>
</clipPath>
</defs>
</svg>
