<svg width="30" height="29" viewBox="0 0 30 29" fill="none" xmlns="http://www.w3.org/2000/svg">
<path fill-rule="evenodd" clip-rule="evenodd" d="M8.71293 15.1415C8.62562 15.0573 8.55635 14.9573 8.50909 14.8472C8.46183 14.7371 8.4375 14.619 8.4375 14.4998C8.4375 14.3806 8.46183 14.2626 8.50909 14.1525C8.55635 14.0424 8.62562 13.9424 8.71293 13.8582L19.9629 2.98321C20.139 2.81304 20.3777 2.71744 20.6267 2.71744C20.8756 2.71744 21.1144 2.81304 21.2904 2.98321C21.4665 3.15338 21.5654 3.38418 21.5654 3.62483C21.5654 3.86549 21.4665 4.09629 21.2904 4.26646L10.7023 14.4998L21.2904 24.7332C21.4665 24.9034 21.5654 25.1342 21.5654 25.3748C21.5654 25.6155 21.4665 25.8463 21.2904 26.0165C21.1144 26.1866 20.8756 26.2822 20.6267 26.2822C20.3777 26.2822 20.139 26.1866 19.9629 26.0165L8.71293 15.1415Z" fill="#C3C3C3" stroke="#C3C3C3" stroke-width="2"/>
</svg>
