<svg width="20" height="20" viewBox="0 0 20 20" fill="none" xmlns="http://www.w3.org/2000/svg">
<path d="M17.3183 4.55862C17.3765 4.61667 17.4227 4.68564 17.4542 4.76158C17.4857 4.83751 17.5019 4.91891 17.5019 5.00112C17.5019 5.08333 17.4857 5.16473 17.4542 5.24066C17.4227 5.31659 17.3765 5.38556 17.3183 5.44362L8.56829 14.1936C8.51023 14.2518 8.44126 14.298 8.36533 14.3295C8.2894 14.361 8.208 14.3772 8.12579 14.3772C8.04358 14.3772 7.96218 14.361 7.88625 14.3295C7.81032 14.298 7.74135 14.2518 7.68329 14.1936L3.30829 9.81862C3.19093 9.70126 3.125 9.54209 3.125 9.37612C3.125 9.21015 3.19093 9.05098 3.30829 8.93362C3.42565 8.81626 3.58482 8.75033 3.75079 8.75033C3.91676 8.75033 4.07593 8.81626 4.19329 8.93362L8.12579 12.8674L16.4333 4.55862C16.4913 4.50041 16.5603 4.45423 16.6362 4.42273C16.7122 4.39122 16.7936 4.375 16.8758 4.375C16.958 4.375 17.0394 4.39122 17.1153 4.42273C17.1913 4.45423 17.2602 4.50041 17.3183 4.55862Z" fill="black"/>
</svg>
