<svg width="21" height="22" viewBox="0 0 21 22" fill="none" xmlns="http://www.w3.org/2000/svg">
<g clip-path="url(#clip0_180_331)">
<path d="M20.9918 10.9472C20.9918 10.0667 20.9203 9.42415 20.7657 8.75781H10.7109V12.7321H16.6128C16.4939 13.7197 15.8513 15.2071 14.4234 16.2066L14.4034 16.3396L17.5825 18.8025L17.8028 18.8244C19.8256 16.9563 20.9918 14.2076 20.9918 10.9472Z" fill="#4285F4"/>
<path d="M10.7075 21.4183C13.599 21.4183 16.0263 20.4663 17.7994 18.8243L14.42 16.2064C13.5157 16.8371 12.302 17.2773 10.7075 17.2773C7.87555 17.2773 5.47196 15.4092 4.61514 12.8271L4.48955 12.8378L1.18386 15.3961L1.14062 15.5163C2.90167 19.0146 6.519 21.4183 10.7075 21.4183Z" fill="#34A853"/>
<path d="M4.6168 12.8273C4.39072 12.1609 4.25988 11.4469 4.25988 10.7092C4.25988 9.97143 4.39072 9.25751 4.60491 8.59117L4.59892 8.44926L1.2518 5.84985L1.14229 5.90194C0.416473 7.35365 0 8.98386 0 10.7092C0 12.4346 0.416473 14.0647 1.14229 15.5164L4.6168 12.8273Z" fill="#FBBC05"/>
<path d="M10.7075 4.14086C12.7184 4.14086 14.0749 5.00948 14.8484 5.73538L17.8707 2.78439C16.0145 1.05902 13.599 0 10.7075 0C6.519 0 2.90167 2.4036 1.14062 5.9019L4.60325 8.59113C5.47196 6.00904 7.87556 4.14086 10.7075 4.14086Z" fill="#EB4335"/>
</g>
<defs>
<clipPath id="clip0_180_331">
<rect width="21" height="21.4922" fill="white"/>
</clipPath>
</defs>
</svg>
