<svg width="34" height="34" viewBox="0 0 34 34" fill="none" xmlns="http://www.w3.org/2000/svg">
<path d="M17.0021 12.7497C15.8749 12.7497 14.7939 13.1974 13.9969 13.9945C13.1998 14.7915 12.7521 15.8725 12.7521 16.9997C12.7521 18.1268 13.1998 19.2078 13.9969 20.0049C14.7939 20.8019 15.8749 21.2497 17.0021 21.2497C18.1292 21.2497 19.2102 20.8019 20.0073 20.0049C20.8043 19.2078 21.2521 18.1268 21.2521 16.9997C21.2521 15.8725 20.8043 14.7915 20.0073 13.9945C19.2102 13.1974 18.1292 12.7497 17.0021 12.7497ZM17.0021 9.91634C18.8807 9.91634 20.6824 10.6626 22.0107 11.991C23.3391 13.3194 24.0854 15.1211 24.0854 16.9997C24.0854 18.8783 23.3391 20.68 22.0107 22.0083C20.6824 23.3367 18.8807 24.083 17.0021 24.083C15.1235 24.083 13.3218 23.3367 11.9934 22.0083C10.665 20.68 9.91873 18.8783 9.91873 16.9997C9.91873 15.1211 10.665 13.3194 11.9934 11.991C13.3218 10.6626 15.1235 9.91634 17.0021 9.91634ZM26.2104 9.56217C26.2104 10.0318 26.0238 10.4822 25.6917 10.8143C25.3596 11.1464 24.9092 11.333 24.4396 11.333C23.9699 11.333 23.5195 11.1464 23.1874 10.8143C22.8553 10.4822 22.6687 10.0318 22.6687 9.56217C22.6687 9.09252 22.8553 8.6421 23.1874 8.31001C23.5195 7.97791 23.9699 7.79134 24.4396 7.79134C24.9092 7.79134 25.3596 7.97791 25.6917 8.31001C26.0238 8.6421 26.2104 9.09252 26.2104 9.56217ZM17.0021 5.66634C13.4972 5.66634 12.9249 5.67626 11.2943 5.74851C10.1837 5.80092 9.43848 5.94967 8.74715 6.21884C8.16861 6.43125 7.64557 6.77171 7.21715 7.21476C6.77374 7.64316 6.43282 8.16617 6.21982 8.74476C5.95065 9.43892 5.8019 10.1827 5.7509 11.2919C5.67723 12.8559 5.66732 13.4028 5.66732 16.9997C5.66732 20.5059 5.67723 21.0768 5.74948 22.7074C5.8019 23.8167 5.95065 24.5633 6.2184 25.2532C6.45923 25.8694 6.74257 26.3128 7.2129 26.7832C7.69032 27.2592 8.13373 27.5439 8.7429 27.7791C9.44273 28.0497 10.1879 28.1998 11.2929 28.2508C12.8569 28.3245 13.4037 28.333 17.0007 28.333C20.5069 28.333 21.0778 28.3231 22.7084 28.2508C23.8162 28.1984 24.5614 28.0497 25.2542 27.7819C25.8322 27.5685 26.355 27.2282 26.7842 26.786C27.2616 26.31 27.5463 25.8666 27.7815 25.256C28.0507 24.559 28.2008 23.8138 28.2518 22.706C28.3255 21.1434 28.334 20.5952 28.334 16.9997C28.334 13.4948 28.3241 12.9225 28.2518 11.2919C28.1994 10.1841 28.0492 9.43609 27.7815 8.74476C27.5679 8.16678 27.2276 7.64398 26.7856 7.21476C26.3574 6.77112 25.8343 6.43016 25.2556 6.21742C24.5614 5.94826 23.8162 5.79951 22.7084 5.74851C21.1458 5.67484 20.599 5.66634 17.0007 5.66634M17.0007 2.83301C20.8497 2.83301 21.33 2.84717 22.8416 2.91801C24.3489 2.98884 25.3774 3.22542 26.2798 3.57676C27.2148 3.93659 28.0025 4.42392 28.7902 5.21017C29.5105 5.91836 30.0679 6.77501 30.4236 7.72051C30.7735 8.62292 31.0115 9.65142 31.0823 11.1602C31.1489 12.6703 31.1673 13.1506 31.1673 16.9997C31.1673 20.8488 31.1532 21.329 31.0823 22.8392C31.0115 24.3479 30.7735 25.375 30.4236 26.2788C30.0689 27.2248 29.5114 28.0817 28.7902 28.7892C28.0818 29.5093 27.2252 30.0667 26.2798 30.4226C25.3774 30.7725 24.3489 31.0105 22.8416 31.0813C21.33 31.1479 20.8497 31.1663 17.0007 31.1663C13.1516 31.1663 12.6713 31.1522 11.1597 31.0813C9.6524 31.0105 8.62532 30.7725 7.72148 30.4226C6.77561 30.0677 5.91881 29.5102 5.21115 28.7892C4.49068 28.0811 3.93326 27.2244 3.57773 26.2788C3.2264 25.3764 2.98982 24.3479 2.91898 22.8392C2.85098 21.329 2.83398 20.8488 2.83398 16.9997C2.83398 13.1506 2.84815 12.6703 2.91898 11.1602C2.98982 9.65142 3.2264 8.62434 3.57773 7.72051C3.93224 6.77443 4.48979 5.91755 5.21115 5.21017C5.91902 4.48942 6.77576 3.93196 7.72148 3.57676C8.6239 3.22542 9.65098 2.98884 11.1597 2.91801C12.6727 2.85142 13.153 2.83301 17.0021 2.83301" fill="#E59E42"/>
</svg>
