<svg width="124" height="58" viewBox="0 0 124 58" fill="none" xmlns="http://www.w3.org/2000/svg">
<path d="M25.06 45V33.64H20.58V31H32.78V33.64H28.3V45H25.06ZM34.5233 45V31H40.5833C41.8366 31 42.9166 31.2067 43.8233 31.62C44.7299 32.02 45.4299 32.6 45.9233 33.36C46.4166 34.12 46.6633 35.0267 46.6633 36.08C46.6633 37.12 46.4166 38.02 45.9233 38.78C45.4299 39.5267 44.7299 40.1 43.8233 40.5C42.9166 40.9 41.8366 41.1 40.5833 41.1H36.3233L37.7633 39.68V45H34.5233ZM43.4233 45L39.9233 39.92H43.3833L46.9233 45H43.4233ZM37.7633 40.04L36.3233 38.52H40.4033C41.4033 38.52 42.1499 38.3067 42.6433 37.88C43.1366 37.44 43.3833 36.84 43.3833 36.08C43.3833 35.3067 43.1366 34.7067 42.6433 34.28C42.1499 33.8533 41.4033 33.64 40.4033 33.64H36.3233L37.7633 32.1V40.04ZM49.2303 45V31H52.4703V45H49.2303ZM62.5928 45.24C61.4861 45.24 60.4595 45.06 59.5128 44.7C58.5795 44.34 57.7661 43.8333 57.0728 43.18C56.3928 42.5267 55.8595 41.76 55.4728 40.88C55.0995 40 54.9128 39.04 54.9128 38C54.9128 36.96 55.0995 36 55.4728 35.12C55.8595 34.24 56.3995 33.4733 57.0928 32.82C57.7861 32.1667 58.5995 31.66 59.5328 31.3C60.4661 30.94 61.4795 30.76 62.5728 30.76C63.6795 30.76 64.6928 30.94 65.6128 31.3C66.5461 31.66 67.3528 32.1667 68.0328 32.82C68.7261 33.4733 69.2661 34.24 69.6528 35.12C70.0395 35.9867 70.2328 36.9467 70.2328 38C70.2328 39.04 70.0395 40.0067 69.6528 40.9C69.2661 41.78 68.7261 42.5467 68.0328 43.2C67.3528 43.84 66.5461 44.34 65.6128 44.7C64.6928 45.06 63.6861 45.24 62.5928 45.24ZM62.5728 42.48C63.1995 42.48 63.7728 42.3733 64.2928 42.16C64.8261 41.9467 65.2928 41.64 65.6928 41.24C66.0928 40.84 66.3995 40.3667 66.6128 39.82C66.8395 39.2733 66.9528 38.6667 66.9528 38C66.9528 37.3333 66.8395 36.7267 66.6128 36.18C66.3995 35.6333 66.0928 35.16 65.6928 34.76C65.3061 34.36 64.8461 34.0533 64.3128 33.84C63.7795 33.6267 63.1995 33.52 62.5728 33.52C61.9461 33.52 61.3661 33.6267 60.8328 33.84C60.3128 34.0533 59.8528 34.36 59.4528 34.76C59.0528 35.16 58.7395 35.6333 58.5128 36.18C58.2995 36.7267 58.1928 37.3333 58.1928 38C58.1928 38.6533 58.2995 39.26 58.5128 39.82C58.7395 40.3667 59.0461 40.84 59.4328 41.24C59.8328 41.64 60.2995 41.9467 60.8328 42.16C61.3661 42.3733 61.9461 42.48 62.5728 42.48Z" fill="#E59E42"/>
<path d="M78.12 45.1C77.08 45.1 76.0933 44.9267 75.16 44.58C74.24 44.22 73.5267 43.76 73.02 43.2L73.48 42.44C73.96 42.9333 74.6133 43.3533 75.44 43.7C76.28 44.0333 77.1667 44.2 78.1 44.2C79.0333 44.2 79.7933 44.08 80.38 43.84C80.98 43.5867 81.42 43.2533 81.7 42.84C81.9933 42.4267 82.14 41.9667 82.14 41.46C82.14 40.86 81.98 40.38 81.66 40.02C81.34 39.66 80.92 39.3733 80.4 39.16C79.88 38.9467 79.3133 38.7667 78.7 38.62C78.0867 38.4733 77.4667 38.32 76.84 38.16C76.2133 37.9867 75.64 37.7667 75.12 37.5C74.6 37.2333 74.18 36.8733 73.86 36.42C73.5533 35.9533 73.4 35.3533 73.4 34.62C73.4 33.9533 73.5733 33.34 73.92 32.78C74.2667 32.22 74.8067 31.7667 75.54 31.42C76.2733 31.0733 77.2133 30.9 78.36 30.9C79.1333 30.9 79.8933 31.0133 80.64 31.24C81.4 31.4667 82.0467 31.7733 82.58 32.16L82.2 32.98C81.6133 32.58 80.98 32.2867 80.3 32.1C79.6333 31.9 78.9867 31.8 78.36 31.8C77.4667 31.8 76.7267 31.9267 76.14 32.18C75.5533 32.4333 75.12 32.7733 74.84 33.2C74.56 33.6133 74.42 34.08 74.42 34.6C74.42 35.2 74.5733 35.68 74.88 36.04C75.2 36.4 75.62 36.6867 76.14 36.9C76.66 37.1133 77.2333 37.2933 77.86 37.44C78.4867 37.5867 79.1067 37.7467 79.72 37.92C80.3333 38.08 80.9 38.2933 81.42 38.56C81.94 38.8267 82.36 39.1867 82.68 39.64C83 40.0933 83.16 40.68 83.16 41.4C83.16 42.0533 82.98 42.6667 82.62 43.24C82.26 43.8 81.7067 44.2533 80.96 44.6C80.2267 44.9333 79.28 45.1 78.12 45.1ZM92.1075 45.1C90.3742 45.1 89.0075 44.5933 88.0075 43.58C87.0075 42.5667 86.5075 41.06 86.5075 39.06V31H87.5275V39.02C87.5275 40.7667 87.9275 42.06 88.7275 42.9C89.5275 43.74 90.6608 44.16 92.1275 44.16C93.5808 44.16 94.7075 43.74 95.5075 42.9C96.3075 42.06 96.7075 40.7667 96.7075 39.02V31H97.7275V39.06C97.7275 41.06 97.2275 42.5667 96.2275 43.58C95.2275 44.5933 93.8542 45.1 92.1075 45.1ZM102.487 45V31H103.347L113.327 43.74H112.867V31H113.887V45H113.047L103.047 32.26H103.507V45H102.487Z" fill="white"/>
<path d="M30.5 1.13219V23C30.3296 22.9818 30.16 22.9744 29.9871 22.9744C29.8259 22.9744 29.6588 22.9818 29.5 22.9968V1.13219C29.5 0.775536 29.724 0 30 0C30.2768 0 30.5 0.775536 30.5 1.13219Z" fill="#E59E42"/>
<path d="M8.44854 15.2158L20.5 27.29C20.2454 27.5103 20.0108 27.7447 19.7879 28L7.73978 15.9291C7.54359 15.7322 7.39646 15.2675 7.59264 15.0706C7.81209 14.8503 8.44854 15.2158 8.44603 15.2158L8.44854 15.2158Z" fill="#E59E42"/>
<path d="M15.5 37C15.49 37.1675 15.485 37.3317 15.485 37.4992C15.485 37.6658 15.49 37.8333 15.5 38H0.930489C0.69347 38 0 37.7761 0 37.5C0 37.2231 0.69347 37 0.930489 37H15.5Z" fill="#E59E42"/>
<path d="M20.5 47.5976L10.2675 57.7967C10.103 57.963 9.70329 58.0878 9.53814 57.9215C9.45237 57.8383 9.53814 57.4664 9.53814 57.4664C9.53814 57.4664 9.57994 57.2801 9.66571 57.1991L19.8982 47C20.0797 47.2157 20.2838 47.4144 20.5 47.6004V47.5976Z" fill="#E59E42"/>
<path d="M54.3232 13.0621L39.3779 28C39.106 27.6844 38.8123 27.3945 38.5 27.1181L53.438 12.1802C53.6821 11.9399 54.256 11.7597 54.5 12C54.7399 12.2434 54.56 12.8187 54.3201 13.0621H54.3232Z" fill="#E59E42"/>
<path d="M24.9932 49C25.1751 49.0942 25.3636 49.178 25.5521 49.2575L23.1335 55.7912C23.0726 55.9661 22.7078 56.5722 22.5521 56.5C22.4349 56.4487 22.5521 55.7944 22.5521 55.6604C22.5521 55.6206 22.5586 55.5766 22.5746 55.5327L24.9932 49Z" fill="#E59E42"/>
<path d="M38.4656 16.71L34.4313 26.5849C34.1281 26.4412 33.8187 26.31 33.5 26.19L37.5344 16.3151C37.6375 16.056 38.2453 15.3893 38.5 15.4999C38.7609 15.6089 38.5734 16.4462 38.4609 16.71H38.4656Z" fill="#E59E42"/>
<path d="M21.5989 16.8225L25.6286 26.6801C25.3145 26.8017 25.0052 26.9218 24.6974 27.0703L20.6677 17.2175C20.5645 16.9536 20.3689 16.12 20.6299 16.011C20.8893 15.9067 21.4911 16.5698 21.5942 16.8225H21.5989Z" fill="#E59E42"/>
<path d="M16.5008 32.2544C16.4094 32.4967 16.3222 32.7439 16.2382 33L9.71099 29.7768C9.53662 29.6894 8.92405 29.2034 9.00073 28.9999C9.07006 28.7913 9.79817 28.9426 9.96939 29.0338L16.5008 32.2582V32.2544Z" fill="#E59E42"/>
<path d="M18.5205 42C18.6455 42.3175 18.7752 42.6303 18.9111 42.9431L9.19547 47.022C8.94078 47.1262 8.10349 47.2528 8.00037 47C7.89099 46.7378 8.55172 46.1879 8.8111 46.0836L18.5205 42.0047V42Z" fill="#E59E42"/>
<path d="M68.3424 51.065H70.1924V51.38H68.3424V51.065ZM68.3824 52.68H70.4874V53H68.0124V49.5H70.4124V49.82H68.3824V52.68ZM71.3571 53V49.5H71.6621L74.0771 52.54H73.9171V49.5H74.2821V53H73.9771L71.5671 49.96H71.7271V53H71.3571ZM75.7545 51.065H77.6045V51.38H75.7545V51.065ZM75.7945 52.68H77.8995V53H75.4245V49.5H77.8245V49.82H75.7945V52.68ZM78.7692 53V49.5H80.0792C80.3759 49.5 80.6309 49.5483 80.8442 49.645C81.0576 49.7383 81.2209 49.875 81.3342 50.055C81.4509 50.2317 81.5092 50.4467 81.5092 50.7C81.5092 50.9467 81.4509 51.16 81.3342 51.34C81.2209 51.5167 81.0576 51.6533 80.8442 51.75C80.6309 51.8433 80.3759 51.89 80.0792 51.89H78.9742L79.1392 51.72V53H78.7692ZM81.1592 53L80.2592 51.73H80.6592L81.5642 53H81.1592ZM79.1392 51.75L78.9742 51.575H80.0692C80.4192 51.575 80.6842 51.4983 80.8642 51.345C81.0476 51.1917 81.1392 50.9767 81.1392 50.7C81.1392 50.42 81.0476 50.2033 80.8642 50.05C80.6842 49.8967 80.4192 49.82 80.0692 49.82H78.9742L79.1392 49.645V51.75ZM83.9175 53.03C83.6508 53.03 83.4042 52.9867 83.1775 52.9C82.9542 52.81 82.7592 52.685 82.5925 52.525C82.4292 52.365 82.3008 52.1767 82.2075 51.96C82.1175 51.7433 82.0725 51.5067 82.0725 51.25C82.0725 50.9933 82.1175 50.7567 82.2075 50.54C82.3008 50.3233 82.4308 50.135 82.5975 49.975C82.7642 49.815 82.9592 49.6917 83.1825 49.605C83.4092 49.515 83.6558 49.47 83.9225 49.47C84.1892 49.47 84.4325 49.5117 84.6525 49.595C84.8758 49.6783 85.0658 49.805 85.2225 49.975L84.9925 50.21C84.8458 50.0633 84.6842 49.9583 84.5075 49.895C84.3308 49.8317 84.1408 49.8 83.9375 49.8C83.7208 49.8 83.5208 49.8367 83.3375 49.91C83.1575 49.98 82.9992 50.0817 82.8625 50.215C82.7292 50.345 82.6242 50.4983 82.5475 50.675C82.4742 50.8483 82.4375 51.04 82.4375 51.25C82.4375 51.4567 82.4742 51.6483 82.5475 51.825C82.6242 52.0017 82.7292 52.1567 82.8625 52.29C82.9992 52.42 83.1575 52.5217 83.3375 52.595C83.5208 52.665 83.7192 52.7 83.9325 52.7C84.1325 52.7 84.3208 52.67 84.4975 52.61C84.6775 52.55 84.8425 52.4483 84.9925 52.305L85.2025 52.585C85.0358 52.7317 84.8408 52.8433 84.6175 52.92C84.3942 52.9933 84.1608 53.03 83.9175 53.03ZM84.8475 52.54V51.25H85.2025V52.585L84.8475 52.54ZM86.2497 53V49.5H86.6197V53H86.2497ZM88.0885 51.065H89.9385V51.38H88.0885V51.065ZM88.1285 52.68H90.2335V53H87.7585V49.5H90.1585V49.82H88.1285V52.68ZM92.0682 53.03C91.8082 53.03 91.5582 52.9883 91.3182 52.905C91.0815 52.8183 90.8982 52.7083 90.7682 52.575L90.9132 52.29C91.0365 52.41 91.2015 52.5117 91.4082 52.595C91.6182 52.675 91.8382 52.715 92.0682 52.715C92.2882 52.715 92.4665 52.6883 92.6032 52.635C92.7432 52.5783 92.8449 52.5033 92.9082 52.41C92.9749 52.3167 93.0082 52.2133 93.0082 52.1C93.0082 51.9633 92.9682 51.8533 92.8882 51.77C92.8115 51.6867 92.7099 51.6217 92.5832 51.575C92.4565 51.525 92.3165 51.4817 92.1632 51.445C92.0099 51.4083 91.8565 51.37 91.7032 51.33C91.5499 51.2867 91.4082 51.23 91.2782 51.16C91.1515 51.09 91.0482 50.9983 90.9682 50.885C90.8915 50.7683 90.8532 50.6167 90.8532 50.43C90.8532 50.2567 90.8982 50.0983 90.9882 49.955C91.0815 49.8083 91.2232 49.6917 91.4132 49.605C91.6032 49.515 91.8465 49.47 92.1432 49.47C92.3399 49.47 92.5349 49.4983 92.7282 49.555C92.9215 49.6083 93.0882 49.6833 93.2282 49.78L93.1032 50.075C92.9532 49.975 92.7932 49.9017 92.6232 49.855C92.4565 49.8083 92.2949 49.785 92.1382 49.785C91.9282 49.785 91.7549 49.8133 91.6182 49.87C91.4815 49.9267 91.3799 50.0033 91.3132 50.1C91.2499 50.1933 91.2182 50.3 91.2182 50.42C91.2182 50.5567 91.2565 50.6667 91.3332 50.75C91.4132 50.8333 91.5165 50.8983 91.6432 50.945C91.7732 50.9917 91.9149 51.0333 92.0682 51.07C92.2215 51.1067 92.3732 51.1467 92.5232 51.19C92.6765 51.2333 92.8165 51.29 92.9432 51.36C93.0732 51.4267 93.1765 51.5167 93.2532 51.63C93.3332 51.7433 93.3732 51.8917 93.3732 52.075C93.3732 52.245 93.3265 52.4033 93.2332 52.55C93.1399 52.6933 92.9965 52.81 92.8032 52.9C92.6132 52.9867 92.3682 53.03 92.0682 53.03ZM94.9411 53V51.7L95.0261 51.93L93.5411 49.5H93.9361L95.2411 51.635H95.0311L96.3361 49.5H96.7061L95.2211 51.93L95.3061 51.7V53H94.9411ZM98.1717 53.03C97.9117 53.03 97.6617 52.9883 97.4217 52.905C97.1851 52.8183 97.0017 52.7083 96.8717 52.575L97.0167 52.29C97.1401 52.41 97.3051 52.5117 97.5117 52.595C97.7217 52.675 97.9417 52.715 98.1717 52.715C98.3917 52.715 98.5701 52.6883 98.7067 52.635C98.8467 52.5783 98.9484 52.5033 99.0117 52.41C99.0784 52.3167 99.1117 52.2133 99.1117 52.1C99.1117 51.9633 99.0717 51.8533 98.9917 51.77C98.9151 51.6867 98.8134 51.6217 98.6867 51.575C98.5601 51.525 98.4201 51.4817 98.2667 51.445C98.1134 51.4083 97.9601 51.37 97.8067 51.33C97.6534 51.2867 97.5117 51.23 97.3817 51.16C97.2551 51.09 97.1517 50.9983 97.0717 50.885C96.9951 50.7683 96.9567 50.6167 96.9567 50.43C96.9567 50.2567 97.0017 50.0983 97.0917 49.955C97.1851 49.8083 97.3267 49.6917 97.5167 49.605C97.7067 49.515 97.9501 49.47 98.2467 49.47C98.4434 49.47 98.6384 49.4983 98.8317 49.555C99.0251 49.6083 99.1917 49.6833 99.3317 49.78L99.2067 50.075C99.0567 49.975 98.8967 49.9017 98.7267 49.855C98.5601 49.8083 98.3984 49.785 98.2417 49.785C98.0317 49.785 97.8584 49.8133 97.7217 49.87C97.5851 49.9267 97.4834 50.0033 97.4167 50.1C97.3534 50.1933 97.3217 50.3 97.3217 50.42C97.3217 50.5567 97.3601 50.6667 97.4367 50.75C97.5167 50.8333 97.6201 50.8983 97.7467 50.945C97.8767 50.9917 98.0184 51.0333 98.1717 51.07C98.3251 51.1067 98.4767 51.1467 98.6267 51.19C98.7801 51.2333 98.9201 51.29 99.0467 51.36C99.1767 51.4267 99.2801 51.5167 99.3567 51.63C99.4367 51.7433 99.4767 51.8917 99.4767 52.075C99.4767 52.245 99.4301 52.4033 99.3367 52.55C99.2434 52.6933 99.1001 52.81 98.9067 52.9C98.7167 52.9867 98.4717 53.03 98.1717 53.03ZM100.914 53V49.82H99.6841V49.5H102.514V49.82H101.284V53H100.914ZM103.435 51.065H105.285V51.38H103.435V51.065ZM103.475 52.68H105.58V53H103.105V49.5H105.505V49.82H103.475V52.68ZM106.45 53V49.5H106.755L108.355 52.23H108.195L109.78 49.5H110.085V53H109.73V50.055H109.815L108.355 52.555H108.18L106.71 50.055H106.805V53H106.45ZM111.555 51.065H113.405V51.38H111.555V51.065ZM111.595 52.68H113.7V53H111.225V49.5H113.625V49.82H111.595V52.68Z" fill="white"/>
</svg>
