<svg width="55" height="58" viewBox="0 0 55 58" fill="none" xmlns="http://www.w3.org/2000/svg">
<path d="M30.5 1.13219V23C30.3296 22.9818 30.16 22.9744 29.9871 22.9744C29.8259 22.9744 29.6588 22.9818 29.5 22.9968V1.13219C29.5 0.775536 29.724 0 30 0C30.2768 0 30.5 0.775536 30.5 1.13219Z" fill="#E59E42"/>
<path d="M8.44854 15.2158L20.5 27.29C20.2454 27.5103 20.0108 27.7447 19.7879 28L7.73978 15.9291C7.54359 15.7322 7.39646 15.2675 7.59264 15.0706C7.81209 14.8503 8.44854 15.2158 8.44603 15.2158L8.44854 15.2158Z" fill="#E59E42"/>
<path d="M15.5 37C15.49 37.1675 15.485 37.3317 15.485 37.4992C15.485 37.6658 15.49 37.8333 15.5 38H0.930489C0.69347 38 0 37.7761 0 37.5C0 37.2231 0.69347 37 0.930489 37H15.5Z" fill="#E59E42"/>
<path d="M20.5 47.5976L10.2675 57.7967C10.103 57.963 9.70329 58.0878 9.53814 57.9215C9.45237 57.8383 9.53814 57.4664 9.53814 57.4664C9.53814 57.4664 9.57994 57.2801 9.66571 57.1991L19.8982 47C20.0797 47.2157 20.2838 47.4144 20.5 47.6004V47.5976Z" fill="#E59E42"/>
<path d="M54.3232 13.0624L39.3779 28.0002C39.106 27.6846 38.8123 27.3948 38.5 27.1183L53.438 12.1805C53.6821 11.9401 54.256 11.7599 54.5 12.0002C54.7399 12.2437 54.56 12.819 54.3201 13.0624H54.3232Z" fill="#E59E42"/>
<path d="M24.9932 49C25.1751 49.0942 25.3636 49.178 25.5521 49.2575L23.1335 55.7912C23.0726 55.9661 22.7078 56.5722 22.5521 56.5C22.4349 56.4487 22.5521 55.7944 22.5521 55.6604C22.5521 55.6206 22.5586 55.5766 22.5746 55.5327L24.9932 49Z" fill="#E59E42"/>
<path d="M38.4656 16.7106L34.4313 26.5855C34.1281 26.4418 33.8187 26.3107 33.5 26.1906L37.5344 16.3157C37.6375 16.0566 38.2453 15.3899 38.5 15.5005C38.7609 15.6095 38.5734 16.4468 38.4609 16.7106H38.4656Z" fill="#E59E42"/>
<path d="M21.5989 16.8225L25.6286 26.6801C25.3145 26.8017 25.0052 26.9218 24.6974 27.0703L20.6677 17.2175C20.5645 16.9536 20.3689 16.12 20.6299 16.011C20.8893 15.9067 21.4911 16.5698 21.5942 16.8225H21.5989Z" fill="#E59E42"/>
<path d="M16.4998 32.2541C16.4084 32.4963 16.3212 32.7436 16.2372 32.9996L9.71001 29.7765C9.53565 29.689 8.92308 29.2031 8.99976 28.9995C9.06908 28.791 9.7972 28.9423 9.96841 29.0334L16.4998 32.2578V32.2541Z" fill="#E59E42"/>
<path d="M18.5205 42C18.6455 42.3175 18.7752 42.6303 18.9111 42.9431L9.19547 47.022C8.94078 47.1262 8.10349 47.2528 8.00037 47C7.89099 46.7378 8.55172 46.1879 8.8111 46.0836L18.5205 42.0047V42Z" fill="#E59E42"/>
<circle cx="7.5" cy="7.5" r="7.5" transform="matrix(-1 0 0 1 37 30)" fill="#E59E42"/>
</svg>
