<svg width="102" height="161" viewBox="0 0 102 161" fill="none" xmlns="http://www.w3.org/2000/svg">
<path d="M64.3003 38.918C89.6443 50.9856 96.2202 57.8332 96.3402 59.7489L97.0602 89.5587C97.1802 90.6361 97.2042 92.2882 96.3402 90.277C95.4762 88.2657 61.4203 70.2837 44.5003 61.5447C34.6602 56.1574 13.1799 44.3771 5.97989 40.3546C-1.22011 36.332 -3.97987 31.974 -4.46011 30.2982L-4.46011 0.488372C-1.58011 3.00246 32.6203 23.8334 64.3003 38.918Z" fill="url(#paint0_linear_44_326)"/>
<g filter="url(#filter0_d_44_326)">
<path d="M64.2988 114.57C89.6428 102.503 96.9388 92.8858 97.0588 90.9703L97.0588 63.9296C97.1788 62.8521 97.1189 58.1831 95.6797 59.6197C94.9588 61.4155 61.4188 83.2042 44.4988 91.9437C34.6588 97.331 13.1785 109.111 5.97847 113.134C-1.22153 117.156 -3.98129 121.514 -4.46153 123.19L-4.46153 153C-1.58153 150.486 32.6188 129.655 64.2988 114.57Z" fill="url(#paint1_linear_44_326)"/>
</g>
<path d="M10.0524 29.7279L8.31922 28.7299L8.78202 26.8039L6.13022 25.277L4.69682 26.6441L2.97229 25.6511L8.84453 20.2625L11.765 21.9441L10.0524 29.7279ZM10.0559 21.5254L7.31229 24.1459L9.16682 25.2138L10.0559 21.5254ZM15.6993 32.4371L19.2572 26.2582L20.9037 27.2063L17.1113 33.7925L13.9742 31.9861L15.8136 24.8638L12.2757 31.008L10.6205 30.055L14.4129 23.4688L17.5586 25.2801L15.6993 32.4371ZM23.7609 28.8515L20.7519 34.0771L23.5163 35.6689L22.7329 37.0295L18.3132 34.4846L22.1056 27.8984L23.7609 28.8515ZM29.9741 41.199L28.2409 40.201L28.7037 38.275L26.0519 36.7481L24.6185 38.1152L22.894 37.1222L28.7662 31.7336L31.6867 33.4152L29.9741 41.199ZM29.9776 32.9966L27.234 35.6171L29.0885 36.6849L29.9776 32.9966ZM35.3859 39.2148L38.9576 41.2483L36.752 45.0787L35.4001 44.3003L36.2733 42.7837C35.8479 43.1619 35.372 43.4071 34.8457 43.5195C34.3195 43.6319 33.7444 43.5084 33.1204 43.1492C32.5918 42.8448 32.1776 42.4217 31.8644 41.8836C31.5511 41.3455 31.3943 40.7359 31.3941 40.055C31.3939 39.374 31.5958 38.6826 32 37.9806C32.3992 37.2873 32.8872 36.7606 33.4676 36.4139C34.048 36.0673 34.6761 35.8982 35.3471 35.9153C36.0181 35.9324 36.6872 36.1331 37.3545 36.5173C38.1778 36.9914 38.7576 37.5676 39.0803 38.2496C39.4031 38.9316 39.4613 39.6921 39.2551 40.5312L37.5306 39.5381C37.6286 38.7868 37.3179 38.2041 36.6073 37.7949C36.2694 37.6003 35.9248 37.5173 35.5737 37.5459C35.2226 37.5745 34.8922 37.7074 34.5689 37.9482C34.2456 38.189 33.9567 38.5304 33.7023 38.9723C33.4528 39.4056 33.3075 39.8182 33.2615 40.2187C33.2156 40.6192 33.2752 40.9766 33.4353 41.2996C33.5955 41.6226 33.8489 41.8839 34.2042 42.0885C34.5162 42.2682 34.8198 42.3622 35.1187 42.3842C35.4175 42.4063 35.6943 42.3465 35.9441 42.2133C36.1938 42.0802 36.4028 41.8775 36.5762 41.5965L34.6523 40.4887L35.3859 39.2148ZM40.9801 43.9592L40.2166 45.2851L43.3277 47.0765L42.5443 48.4371L37.7779 45.6926L41.5703 39.1064L46.2587 41.806L45.4752 43.1665L42.4421 41.42L41.7635 42.5986L44.7359 44.3102L43.9525 45.6707L40.9801 43.9592ZM51.95 45.0831C52.548 45.4274 53.0007 45.8035 53.3119 46.225C53.623 46.6465 53.7903 47.0775 53.8173 47.5315C53.8444 47.9856 53.7238 48.4354 53.4593 48.8947C53.1999 49.3454 52.8713 49.6755 52.4651 49.88C52.0588 50.0846 51.6021 50.1563 51.0813 50.0987C50.5606 50.0412 50.008 49.8384 49.4101 49.4941L48.3615 48.8903L47.109 51.0655L45.4538 50.1124L49.2462 43.5262L51.95 45.0831ZM50.2282 48.1535L50.2405 48.1722C50.5785 48.3668 50.8834 48.4385 51.1415 48.3909C51.3997 48.3434 51.6061 48.1853 51.7608 47.9167C51.9155 47.648 51.9486 47.3902 51.8514 47.1381C51.7543 46.8859 51.5392 46.6582 51.2012 46.4636L50.118 45.8399L49.1449 47.5298L50.2282 48.1535ZM57.1555 48.0805L54.1465 53.3061L56.911 54.8979L56.1276 56.2585L51.7079 53.7136L55.5003 47.1274L57.1555 48.0805ZM63.3688 60.4281L61.6356 59.4301L62.0984 57.5041L59.4466 55.9771L58.0132 57.3442L56.2886 56.3512L62.1609 50.9627L65.0813 52.6443L63.3688 60.4281ZM63.3723 52.2256L60.6286 54.8461L62.4832 55.914L63.3723 52.2256ZM69.0156 63.1372L72.5735 56.9584L74.2201 57.9065L70.4277 64.4926L67.2906 62.6863L69.1299 55.564L65.592 61.7082L63.9368 60.7551L67.7292 54.169L70.875 55.9803L69.0156 63.1372ZM74.8317 63.4514L74.0682 64.7773L77.1793 66.5687L76.3959 67.9292L71.6296 65.1847L75.422 58.5986L80.1103 61.2981L79.3269 62.6587L76.2938 60.9122L75.6151 62.0908L78.5876 63.8024L77.8041 65.1629L74.8317 63.4514ZM82.4717 70.8854L86.0295 64.7065L87.6761 65.6546L83.8837 72.2408L80.7466 70.4344L82.586 63.3122L79.048 69.4564L77.3928 68.5033L81.1852 61.9171L84.331 63.7285L82.4717 70.8854Z" fill="black"/>
<path d="M5.79498 136.341L5.62746 136.034L5.82621 135.918C6.09408 135.762 6.25759 135.586 6.31171 135.381C6.36583 135.176 6.31416 134.928 6.14807 134.643L3.14831 129.493L3.53715 129.266L6.53691 134.416C6.74831 134.779 6.80567 135.116 6.70902 135.427C6.61236 135.738 6.38257 135.999 6.01965 136.21L5.79498 136.341ZM3.01589 128.332L2.60112 128.573L1.98204 127.51L2.39681 127.269L3.01589 128.332ZM10.3137 128.49L6.51023 130.682C6.75543 131.083 7.03956 131.392 7.36262 131.609C7.68567 131.826 8.02392 131.93 8.37375 131.934C8.72358 131.939 9.06267 131.846 9.39967 131.649C9.8058 131.413 10.0874 131.121 10.2359 130.78C10.3844 130.439 10.4135 130.052 10.3144 129.624L10.7119 129.392C10.8591 129.943 10.8322 130.433 10.6275 130.876C10.4227 131.32 10.0784 131.682 9.5859 131.969C9.17113 132.211 8.7442 132.332 8.30511 132.333C7.86602 132.334 7.45437 132.204 7.06152 131.947C6.66866 131.689 6.33563 131.316 6.0588 130.841C5.78198 130.366 5.63544 129.896 5.61054 129.436C5.58564 128.976 5.67517 128.553 5.87913 128.168C6.08308 127.783 6.38561 127.468 6.79174 127.232C7.18058 127.005 7.59023 126.894 8.02068 126.898C8.45113 126.902 8.85774 127.023 9.24053 127.263C9.62332 127.503 9.95493 127.854 10.2217 128.312L10.3137 128.49ZM6.2433 128.257L6.23105 128.276C6.0797 128.572 6.00678 128.904 6.02095 129.266C6.03511 129.628 6.13493 129.998 6.32543 130.385L9.71271 128.412C9.49771 128.063 9.23372 127.788 8.92576 127.597C8.6178 127.406 8.28819 127.297 7.94197 127.279C7.59575 127.261 7.2653 127.349 6.94558 127.535C6.62586 127.722 6.39465 127.961 6.2433 128.257ZM14.6408 128.504L14.8493 128.822L14.279 129.154C13.9161 129.366 13.5756 129.437 13.2574 129.368C12.9393 129.298 12.6746 129.082 12.4682 128.728L12.4581 128.711L10.6261 125.565L9.56323 126.184L9.38204 125.873L10.4449 125.254L9.81574 124.174L10.2046 123.948L10.8337 125.028L12.1644 124.253L12.3456 124.564L11.0149 125.339L12.847 128.484L12.8571 128.501C13.0181 128.778 13.203 128.936 13.4031 128.982C13.6032 129.027 13.8371 128.972 14.105 128.816L14.6408 128.504ZM16.3577 122.4L15.4924 128.008L18.7587 126.105L18.9399 126.416L15.2934 128.54L15.0317 128.091L15.8969 122.484L12.8812 124.24L12.7 123.929L16.0959 121.951L16.3577 122.4ZM21.8894 124.282L22.098 124.6L21.5277 124.932C21.1647 125.144 20.8242 125.215 20.5061 125.145C20.188 125.076 19.9232 124.86 19.7169 124.506L19.7068 124.488L17.8748 121.343L16.8119 121.962L16.6307 121.651L17.6936 121.032L17.0644 119.952L17.4533 119.725L18.0824 120.806L19.4131 120.03L19.5943 120.342L18.2636 121.117L20.0957 124.262L20.1057 124.279C20.2668 124.556 20.4517 124.714 20.6518 124.76C20.8518 124.805 21.0858 124.75 21.3537 124.594L21.8894 124.282ZM30.2372 119.836L29.7447 120.123L26.1511 118.305L26.0301 118.375L24.1896 119.447L25.8908 122.368L25.4846 122.604L21.6594 116.037L23.9061 114.729C24.3468 114.472 24.7759 114.314 25.1898 114.27C25.6038 114.226 25.9838 114.282 26.3263 114.453C26.6688 114.624 26.9551 114.897 27.1766 115.277C27.4534 115.752 27.533 116.227 27.4291 116.704C27.3251 117.181 27.0434 117.611 26.5839 117.995L30.2372 119.836ZM23.9731 119.076L25.8123 117.981C26.1665 117.775 26.4424 117.533 26.6448 117.265C26.8473 116.996 26.959 116.711 26.9801 116.41C27.0012 116.108 26.9193 115.809 26.7431 115.506C26.567 115.204 26.3468 114.985 26.0741 114.854C25.8014 114.724 25.4984 114.681 25.1651 114.724C24.8318 114.768 24.4855 114.889 24.1312 115.095L22.282 116.172L23.9731 119.076ZM31.3286 113.275L31.3235 113.267C31.687 113.275 32.0066 113.366 32.2735 113.546C32.5404 113.727 32.7569 113.959 32.923 114.244L32.9331 114.262L34.6746 117.251L34.2857 117.478L33.6667 116.415C33.7949 117.37 33.4424 118.096 32.6043 118.585C32.3105 118.756 32.0074 118.851 31.6949 118.871C31.3825 118.891 31.0918 118.829 30.8277 118.694C30.5636 118.558 30.3535 118.356 30.1975 118.089C30.0113 117.769 29.9604 117.463 30.0448 117.171C30.1292 116.879 30.287 116.613 30.5182 116.374C30.7494 116.135 31.0425 115.884 31.4062 115.614L32.6291 114.693L32.5737 114.598L32.5636 114.581C32.4177 114.33 32.2299 114.127 32.0091 113.967C31.7882 113.806 31.5406 113.719 31.2527 113.701C30.9648 113.684 30.6653 113.766 30.3456 113.952C30.0604 114.118 29.8487 114.311 29.7053 114.522C29.5619 114.732 29.4819 114.953 29.4738 115.177C29.4657 115.402 29.5059 115.61 29.5994 115.81L29.2019 116.042C29.0718 115.759 29.0223 115.475 29.0484 115.182C29.0745 114.889 29.1862 114.604 29.375 114.332C29.5638 114.06 29.831 113.823 30.1766 113.622C30.5828 113.386 30.9651 113.267 31.3286 113.275ZM33.2873 117.492L33.2988 117.532C33.4502 117.236 33.5195 116.917 33.4931 116.574C33.4667 116.231 33.351 115.893 33.1547 115.556L32.8225 114.986L31.8215 115.731C31.4578 116.001 31.1683 116.239 30.9529 116.445C30.7376 116.651 30.5906 116.876 30.5069 117.11C30.4233 117.344 30.4613 117.588 30.6072 117.838C30.7431 118.072 30.9194 118.235 31.1324 118.343C31.3454 118.45 31.5764 118.489 31.8219 118.473C32.0674 118.458 32.3085 118.375 32.5419 118.239C32.8875 118.038 33.136 117.789 33.2873 117.492ZM36.8716 110.128L36.8544 110.138C37.2812 110.155 37.6842 110.291 38.0684 110.553C38.4526 110.815 38.7806 111.18 39.0524 111.646C39.3242 112.113 39.4794 112.578 39.518 113.042C39.5565 113.505 39.4756 113.923 39.2803 114.303C39.085 114.683 38.7947 114.979 38.4059 115.205C38.1207 115.371 37.8176 115.467 37.4966 115.492C37.1755 115.517 36.8725 115.474 36.5839 115.376C36.2953 115.277 36.0349 115.128 35.8025 114.928L36.5273 116.172L36.1384 116.399L32.3132 109.832L32.7021 109.605L34.6096 112.88C34.5501 112.579 34.5438 112.27 34.5872 111.967C34.6306 111.664 34.7423 111.379 34.9225 111.112C35.1026 110.846 35.3439 110.624 35.6463 110.448C36.0351 110.221 36.4448 110.11 36.8716 110.128ZM38.8996 114.166L38.8874 114.184C39.046 113.86 39.1038 113.503 39.0608 113.111C39.0179 112.72 38.8756 112.316 38.6391 111.91C38.4025 111.504 38.122 111.181 37.8025 110.951C37.4831 110.72 37.1434 110.594 36.7835 110.572C36.4236 110.551 36.0709 110.64 35.7166 110.847C35.3623 111.053 35.1016 111.321 34.9343 111.649C34.7671 111.978 34.7093 112.336 34.7523 112.728C34.7952 113.119 34.9324 113.514 35.169 113.92C35.4055 114.326 35.6861 114.649 36.0055 114.879C36.325 115.11 36.6733 115.231 37.0418 115.248C37.4103 115.264 37.7718 115.17 38.126 114.963C38.4803 114.757 38.7411 114.489 38.8996 114.166ZM41.7079 107.23L41.7029 107.221C42.0664 107.229 42.3859 107.321 42.6529 107.501C42.9198 107.681 43.1363 107.914 43.3024 108.199L43.3125 108.216L45.0539 111.206L44.6651 111.432L44.046 110.369C44.1742 111.325 43.8218 112.051 42.9836 112.539C42.6898 112.71 42.3867 112.806 42.0743 112.826C41.7619 112.846 41.4711 112.783 41.207 112.648C40.943 112.512 40.7329 112.311 40.5769 112.043C40.3906 111.723 40.3397 111.417 40.4241 111.125C40.5085 110.833 40.6664 110.567 40.8976 110.329C41.1288 110.09 41.4219 109.838 41.7856 109.568L43.0084 108.648L42.9531 108.553L42.943 108.535C42.797 108.285 42.6093 108.082 42.3884 107.921C42.1675 107.76 41.92 107.673 41.6321 107.656C41.3441 107.638 41.0446 107.72 40.7249 107.906C40.4398 108.072 40.228 108.265 40.0846 108.476C39.9413 108.687 39.8612 108.907 39.8532 109.132C39.8451 109.356 39.8853 109.564 39.9787 109.764L39.5812 109.996C39.4511 109.713 39.4016 109.429 39.4278 109.136C39.4539 108.843 39.5656 108.558 39.7544 108.286C39.9431 108.014 40.2103 107.778 40.556 107.576C40.9621 107.34 41.3444 107.221 41.7079 107.23ZM43.6667 111.447L43.6782 111.486C43.8295 111.19 43.8989 110.872 43.8724 110.528C43.846 110.185 43.7304 109.847 43.5341 109.51L43.2019 108.94L42.2008 109.685C41.8372 109.955 41.5476 110.193 41.3323 110.399C41.1169 110.606 40.9699 110.83 40.8863 111.064C40.8026 111.298 40.8406 111.542 40.9866 111.793C41.1225 112.026 41.2987 112.19 41.5117 112.297C41.7247 112.404 41.9558 112.443 42.2012 112.428C42.4467 112.412 42.6879 112.329 42.9212 112.193C43.2669 111.992 43.5153 111.743 43.6667 111.447ZM49.6037 107.063L49.6598 107.1C49.8208 107.376 50.0057 107.535 50.2058 107.58C50.4059 107.626 50.6399 107.57 50.9077 107.414L51.4435 107.102L51.6247 107.413L51.063 107.74C50.7001 107.952 50.3596 108.023 50.0415 107.954C49.7233 107.884 49.4586 107.668 49.2522 107.314L49.2422 107.297L47.4101 104.151L44.7573 105.696L46.5894 108.842L46.5994 108.859C46.7605 109.136 46.9454 109.294 47.1455 109.339C47.3455 109.385 47.5795 109.33 47.8474 109.174L48.3831 108.862L48.5643 109.173L47.994 109.505C47.6311 109.716 47.2906 109.787 46.9725 109.718C46.6544 109.649 46.3896 109.433 46.1832 109.078L46.1732 109.061L44.3411 105.916L43.2783 106.535L43.0971 106.224L44.1599 105.605L43.5308 104.524L43.9196 104.298L44.5488 105.378L47.2016 103.833L46.5724 102.753L46.9613 102.526L47.5904 103.606L48.9211 102.831L49.1023 103.142L47.7716 103.917L49.6037 107.063ZM55.377 105.1L55.3547 105.102C55.0301 105.14 54.7184 105.102 54.4284 104.982C54.1384 104.861 53.8801 104.676 53.6571 104.412L54.0546 104.181C54.3438 104.499 54.6776 104.674 55.0476 104.714C55.4176 104.753 55.784 104.667 56.1383 104.46C56.4062 104.304 56.6229 104.12 56.775 103.904C56.927 103.688 57.0121 103.477 57.0252 103.261C57.0383 103.045 56.9945 102.85 56.8888 102.669C56.773 102.47 56.6392 102.34 56.4823 102.269C56.3255 102.199 56.1405 102.179 55.9274 102.211C55.7143 102.242 55.4407 102.309 55.1031 102.425L54.5811 102.601C54.1023 102.753 53.6848 102.811 53.3422 102.779C52.9996 102.747 52.7276 102.558 52.5313 102.221C52.3954 101.988 52.3524 101.735 52.3936 101.468C52.4348 101.201 52.548 100.939 52.7381 100.689C52.9283 100.439 53.1747 100.226 53.4771 100.05C53.745 99.8943 54.0294 99.7865 54.3267 99.7406C54.624 99.6947 54.9033 99.7172 55.1731 99.803C55.443 99.8889 55.6776 100.053 55.8718 100.287L55.4743 100.519C55.3153 100.345 55.1333 100.231 54.9231 100.169C54.713 100.106 54.497 100.093 54.2753 100.129C54.0536 100.166 53.8434 100.242 53.6446 100.358C53.4286 100.484 53.2413 100.639 53.0915 100.819C52.9417 100.999 52.8465 101.193 52.8147 101.397C52.7829 101.6 52.813 101.791 52.9187 101.973C53.0194 102.145 53.1518 102.253 53.3122 102.31C53.4727 102.367 53.6527 102.378 53.8521 102.343C54.0515 102.308 54.2941 102.248 54.5886 102.157L55.1106 101.98C55.6635 101.797 56.112 101.733 56.456 101.787C56.8 101.841 57.0684 102.044 57.2748 102.398C57.4207 102.648 57.4789 102.927 57.4528 103.22C57.4267 103.513 57.3149 103.798 57.1261 104.07C56.9374 104.342 56.6788 104.574 56.3504 104.765C56.0307 104.951 55.7017 105.062 55.377 105.1ZM59.5815 102.744L59.1926 102.97L56.5301 98.3993L56.9189 98.1728L59.5815 102.744ZM56.3926 97.2295L55.9779 97.4711L55.3588 96.4083L55.7736 96.1667L56.3926 97.2295ZM61.7178 101.233L61.7221 101.3C61.278 101.293 60.8663 101.162 60.4735 100.905C60.0806 100.648 59.7526 100.283 59.4758 99.8081C59.199 99.3329 59.0524 98.8627 59.0275 98.4028C59.0027 97.9428 59.0922 97.5203 59.3048 97.1303C59.5174 96.7403 59.8372 96.4152 60.2606 96.1685C60.7618 95.8766 61.2707 95.7769 61.7825 95.8607C62.2942 95.9445 62.754 96.1975 63.1705 96.6145L62.7644 96.8511C62.4292 96.514 62.0615 96.3 61.6577 96.2227C61.254 96.1454 60.8465 96.2207 60.4404 96.4573C60.0861 96.6637 59.8253 96.9313 59.6581 97.2601C59.4909 97.589 59.4245 97.9517 59.4588 98.3483C59.4931 98.745 59.6303 99.1395 59.8668 99.5457C60.1034 99.9518 60.3839 100.274 60.712 100.5C61.0401 100.725 61.3884 100.847 61.7569 100.863C62.1255 100.88 62.4869 100.785 62.8412 100.579C63.2473 100.343 63.5275 100.029 63.6681 99.6345C63.8087 99.2401 63.8213 98.8046 63.697 98.3331L64.1032 98.0965C64.208 98.4752 64.2359 98.8409 64.1867 99.1936C64.1375 99.5462 64.0149 99.8722 63.8139 100.163C63.6129 100.454 63.3457 100.69 63.0173 100.882C62.5939 101.128 62.162 101.241 61.7178 101.233ZM66.2473 92.9129L66.2523 92.9216C66.5885 92.9225 66.908 93.0141 67.216 93.2051C67.5239 93.396 67.7742 93.6668 67.9806 94.0211L67.9907 94.0384L69.6466 96.8813L69.2577 97.1078L67.6421 94.334L67.632 94.3167C67.4408 93.9884 67.2142 93.7384 66.9523 93.567C66.6904 93.3955 66.4205 93.3096 66.1427 93.3095C65.8648 93.3093 65.5963 93.3847 65.3284 93.5407C65.0605 93.6967 64.8624 93.8931 64.7255 94.1349C64.5886 94.3767 64.5301 94.6538 64.5501 94.9662C64.57 95.2786 64.6756 95.599 64.8669 95.9273L66.4876 98.7097L66.0987 98.9362L62.2735 92.3691L62.6624 92.1426L64.3887 95.1064C64.3235 94.7163 64.3626 94.3463 64.5111 94.0052C64.6596 93.6641 64.9153 93.3879 65.2696 93.1815C65.5807 93.0003 65.9111 92.912 66.2473 92.9129ZM73.7038 91.5671L69.9003 93.7593C70.1455 94.1604 70.4296 94.4694 70.7527 94.6863C71.0757 94.9032 71.414 95.007 71.7638 95.0116C72.1136 95.0161 72.4527 94.9228 72.7897 94.7265C73.1958 94.4899 73.4775 94.1986 73.626 93.8575C73.7745 93.5164 73.8035 93.1291 73.7045 92.7008L74.1019 92.4692C74.2492 93.02 74.2222 93.5102 74.0175 93.9534C73.8128 94.3967 73.4685 94.7593 72.9759 95.0462C72.5612 95.2878 72.1342 95.4091 71.6952 95.4103C71.2561 95.4115 70.8444 95.2809 70.4516 95.0237C70.0587 94.7665 69.7257 94.3934 69.4488 93.9181C69.172 93.4429 69.0255 92.9727 69.0006 92.5127C68.9757 92.0528 69.0652 91.6303 69.2692 91.2453C69.4731 90.8604 69.7757 90.5453 70.1818 90.3087C70.5706 90.0822 70.9803 89.9709 71.4107 89.9748C71.8412 89.9787 72.2478 90.1006 72.6306 90.3405C73.0134 90.5805 73.345 90.9312 73.6117 91.3892L73.7038 91.5671ZM69.6333 91.3341L69.6211 91.3528C69.4697 91.6493 69.3968 91.9811 69.411 92.3431C69.4252 92.7052 69.525 93.0753 69.7155 93.4619L73.1028 91.4889C72.8878 91.1397 72.6238 90.8653 72.3158 90.6743C72.0078 90.4834 71.6782 90.3745 71.332 90.3562C70.9858 90.338 70.6553 90.4263 70.3356 90.6126C70.0159 90.7988 69.7847 91.0376 69.6333 91.3341ZM74.5013 89.2624L74.5064 89.2711C74.4296 88.8413 74.4723 88.4577 74.6208 88.1166C74.7693 87.7755 75.0683 87.4741 75.5089 87.2174L75.7304 87.5976L75.6267 87.658C75.1342 87.9449 74.8244 88.2873 74.7025 88.6939C74.5806 89.1005 74.6674 89.5476 74.9543 90.0401L76.5851 92.8398L76.1962 93.0663L73.5337 88.4952L73.9225 88.2687L74.5013 89.2624ZM79.3101 85.3042L79.3151 85.3128C79.6513 85.3138 79.9708 85.4054 80.2788 85.5963C80.5867 85.7873 80.837 86.0581 81.0434 86.4124L81.0535 86.4297L82.7094 89.2726L82.3205 89.4991L80.7049 86.7253L80.6948 86.708C80.5036 86.3797 80.277 86.1297 80.0151 85.9582C79.7532 85.7868 79.4833 85.7009 79.2055 85.7008C78.9276 85.7006 78.6591 85.776 78.3912 85.932C78.1233 86.088 77.9252 86.2844 77.7883 86.5262C77.6514 86.768 77.5929 87.045 77.6129 87.3575C77.6328 87.6699 77.7384 87.9903 77.9297 88.3186L79.5504 91.101L79.1615 91.3275L76.499 86.7564L76.8878 86.5299L77.4515 87.4977C77.3863 87.1075 77.4254 86.7376 77.5739 86.3965C77.7224 86.0554 77.9781 85.7791 78.3324 85.5728C78.6435 85.3916 78.9739 85.3033 79.3101 85.3042Z" fill="black"/>
<defs>
<filter id="filter0_d_44_326" x="-8.46094" y="59.3477" width="109.561" height="101.652" filterUnits="userSpaceOnUse" color-interpolation-filters="sRGB">
<feFlood flood-opacity="0" result="BackgroundImageFix"/>
<feColorMatrix in="SourceAlpha" type="matrix" values="0 0 0 0 0 0 0 0 0 0 0 0 0 0 0 0 0 0 127 0" result="hardAlpha"/>
<feOffset dy="4"/>
<feGaussianBlur stdDeviation="2"/>
<feComposite in2="hardAlpha" operator="out"/>
<feColorMatrix type="matrix" values="0 0 0 0 0 0 0 0 0 0 0 0 0 0 0 0 0 0 0.25 0"/>
<feBlend mode="normal" in2="BackgroundImageFix" result="effect1_dropShadow_44_326"/>
<feBlend mode="normal" in="SourceGraphic" in2="effect1_dropShadow_44_326" result="shape"/>
</filter>
<linearGradient id="paint0_linear_44_326" x1="97.1211" y1="71.9602" x2="30.5212" y2="73.4036" gradientUnits="userSpaceOnUse">
<stop stop-color="#919191"/>
<stop offset="0.095" stop-color="white"/>
</linearGradient>
<linearGradient id="paint1_linear_44_326" x1="97.1197" y1="81.5268" x2="30.5198" y2="80.0833" gradientUnits="userSpaceOnUse">
<stop stop-color="#919191"/>
<stop offset="0.095" stop-color="white"/>
</linearGradient>
</defs>
</svg>
