<svg width="21" height="22" viewBox="0 0 21 22" fill="none" xmlns="http://www.w3.org/2000/svg">
<path d="M8.88225 15.3965L16.0778 8.201L15.2812 7.4045L8.88225 13.8035L5.676 10.5972L4.8795 11.3938L8.88225 15.3965ZM10.5034 21.125C9.10388 21.125 7.78762 20.8595 6.55463 20.3285C5.32237 19.7967 4.25025 19.0753 3.33825 18.164C2.42625 17.2535 1.70438 16.1825 1.17263 14.951C0.640875 13.7195 0.375 12.4036 0.375 11.0034C0.375 9.60388 0.6405 8.28762 1.1715 7.05463C1.70325 5.82237 2.42475 4.75025 3.336 3.83825C4.2465 2.92625 5.3175 2.20438 6.549 1.67263C7.7805 1.14088 9.09637 0.875 10.4966 0.875C11.8961 0.875 13.2124 1.1405 14.4454 1.6715C15.6776 2.20325 16.7497 2.92475 17.6617 3.836C18.5737 4.7465 19.2956 5.8175 19.8274 7.049C20.3591 8.2805 20.625 9.59637 20.625 10.9966C20.625 12.3961 20.3595 13.7124 19.8285 14.9454C19.2967 16.1776 18.5753 17.2497 17.664 18.1617C16.7535 19.0737 15.6825 19.7956 14.451 20.3274C13.2195 20.8591 11.9036 21.125 10.5034 21.125Z" fill="#B5B5B5"/>
</svg>
